<svg width="504" height="106" viewBox="0 0 504 106" fill="none" xmlns="http://www.w3.org/2000/svg">
<rect x="204" y="4" width="97" height="97" stroke="#FF8688" stroke-width="4"/>
<path d="M212.375 12.1818H214.341L215.693 15.4773H215.761L217.114 12.1818H219.08V18H217.534V14.6364H217.489L216.193 17.9545H215.261L213.966 14.6136H213.92V18H212.375V12.1818ZM219.828 18V12.1818H224.021V13.4545H221.408V14.4545H223.805V15.7273H221.408V16.7273H224.01V18H219.828ZM224.805 18V12.1818H228.998V13.4545H226.384V14.4545H228.782V15.7273H226.384V16.7273H228.987V18H224.805ZM229.622 13.4545V12.1818H234.679V13.4545H232.929V18H231.372V13.4545H229.622ZM236.867 18V12.1818H240.958V13.4545H238.447V14.4545H240.708V15.7273H238.447V18H236.867ZM241.539 18V12.1818H244.05C244.482 12.1818 244.86 12.2604 245.184 12.4176C245.508 12.5748 245.76 12.8011 245.94 13.0966C246.12 13.392 246.21 13.7462 246.21 14.1591C246.21 14.5758 246.117 14.9271 245.931 15.2131C245.747 15.4991 245.489 15.715 245.156 15.8608C244.824 16.0066 244.437 16.0795 243.994 16.0795H242.494V14.8523H243.675C243.861 14.8523 244.019 14.8295 244.15 14.7841C244.282 14.7367 244.384 14.6619 244.454 14.5597C244.526 14.4574 244.562 14.3239 244.562 14.1591C244.562 13.9924 244.526 13.857 244.454 13.7528C244.384 13.6468 244.282 13.5691 244.15 13.5199C244.019 13.4687 243.861 13.4432 243.675 13.4432H243.119V18H241.539ZM244.948 15.3295L246.403 18H244.687L243.266 15.3295H244.948ZM248.462 12.1818V18H246.883V12.1818H248.462ZM249.211 18V12.1818H253.404V13.4545H250.79V14.4545H253.188V15.7273H250.79V16.7273H253.393V18H249.211ZM259.222 12.1818V18H257.903L255.801 14.9432H255.767V18H254.188V12.1818H255.528L257.597 15.2273H257.642V12.1818H259.222ZM262.207 18H259.969V12.1818H262.185C262.783 12.1818 263.3 12.2983 263.736 12.5312C264.173 12.7623 264.51 13.0956 264.747 13.5312C264.986 13.965 265.105 14.4848 265.105 15.0909C265.105 15.697 264.987 16.2178 264.75 16.6534C264.513 17.0871 264.178 17.4205 263.744 17.6534C263.311 17.8845 262.798 18 262.207 18ZM261.548 16.6591H262.151C262.438 16.6591 262.684 16.6127 262.886 16.5199C263.091 16.4271 263.246 16.267 263.352 16.0398C263.46 15.8125 263.514 15.4962 263.514 15.0909C263.514 14.6856 263.459 14.3693 263.349 14.142C263.241 13.9148 263.082 13.7547 262.872 13.6619C262.664 13.5691 262.408 13.5227 262.105 13.5227H261.548V16.6591ZM268.972 14C268.957 13.8106 268.886 13.6629 268.759 13.5568C268.634 13.4508 268.444 13.3977 268.188 13.3977C268.025 13.3977 267.892 13.4176 267.788 13.4574C267.685 13.4953 267.61 13.5473 267.56 13.6136C267.511 13.6799 267.486 13.7557 267.484 13.8409C267.48 13.911 267.492 13.9744 267.521 14.0312C267.551 14.0862 267.598 14.1364 267.663 14.1818C267.727 14.2254 267.809 14.2652 267.91 14.3011C268.01 14.3371 268.129 14.3693 268.268 14.3977L268.745 14.5C269.067 14.5682 269.343 14.6581 269.572 14.7699C269.801 14.8816 269.988 15.0133 270.134 15.1648C270.28 15.3144 270.387 15.483 270.455 15.6705C270.525 15.858 270.561 16.0625 270.563 16.2841C270.561 16.6667 270.466 16.9905 270.276 17.2557C270.087 17.5208 269.816 17.7225 269.464 17.8608C269.113 17.9991 268.692 18.0682 268.2 18.0682C267.694 18.0682 267.253 17.9934 266.876 17.8438C266.501 17.6941 266.209 17.464 266.001 17.1534C265.794 16.8409 265.69 16.4413 265.688 15.9545H267.188C267.198 16.1326 267.242 16.2822 267.322 16.4034C267.401 16.5246 267.513 16.6165 267.657 16.679C267.803 16.7415 267.976 16.7727 268.177 16.7727C268.345 16.7727 268.487 16.7519 268.6 16.7102C268.714 16.6686 268.8 16.6108 268.859 16.5369C268.917 16.4631 268.948 16.3788 268.95 16.2841C268.948 16.1951 268.918 16.1174 268.862 16.0511C268.807 15.983 268.716 15.9223 268.589 15.8693C268.462 15.8144 268.29 15.7633 268.075 15.7159L267.495 15.5909C266.98 15.4792 266.574 15.2926 266.276 15.0312C265.981 14.768 265.834 14.4091 265.836 13.9545C265.834 13.5852 265.933 13.2623 266.131 12.9858C266.332 12.7074 266.61 12.4905 266.964 12.3352C267.32 12.1799 267.728 12.1023 268.188 12.1023C268.658 12.1023 269.064 12.1809 269.407 12.3381C269.75 12.4953 270.014 12.7169 270.2 13.0028C270.387 13.2869 270.482 13.6193 270.484 14H268.972Z" fill="black"/>
<path d="M210.557 86.7273H212.453L214.456 91.6136H214.541L216.544 86.7273H218.44V94H216.949V89.2663H216.889L215.006 93.9645H213.991L212.109 89.2486H212.048V94H210.557V86.7273Z" fill="black"/>
<path d="M215.023 83.0994C214.521 83.0994 214.074 83.0071 213.681 82.8224C213.29 82.6378 212.98 82.3833 212.75 82.0589C212.521 81.7346 212.401 81.3629 212.392 80.9439H213.883C213.9 81.2256 214.018 81.4541 214.238 81.6293C214.458 81.8045 214.72 81.892 215.023 81.892C215.265 81.892 215.478 81.8388 215.662 81.7322C215.849 81.6233 215.995 81.473 216.099 81.2812C216.206 81.0871 216.259 80.8646 216.259 80.6136C216.259 80.358 216.204 80.133 216.096 79.9389C215.989 79.7448 215.841 79.5933 215.652 79.4844C215.462 79.3755 215.246 79.3198 215.002 79.3175C214.789 79.3175 214.582 79.3613 214.38 79.4489C214.181 79.5365 214.026 79.656 213.915 79.8075L212.548 79.5625L212.892 75.7273H217.338V76.9844H214.16L213.972 78.8061H214.015C214.142 78.6262 214.335 78.477 214.593 78.3587C214.851 78.2403 215.14 78.1811 215.46 78.1811C215.898 78.1811 216.288 78.2841 216.632 78.4901C216.975 78.696 217.246 78.9789 217.445 79.3388C217.644 79.6963 217.742 80.1082 217.74 80.5746C217.742 81.0646 217.628 81.5002 217.399 81.8814C217.172 82.2602 216.853 82.5585 216.444 82.7763C216.036 82.9917 215.563 83.0994 215.023 83.0994Z" fill="black"/>
<path d="M254.151 63.9897C254.151 71.8016 226.151 71.8016 226.151 63.9897C226.151 56.1778 232.42 49.8486 240.149 49.8486C247.879 49.8486 254.148 56.1816 254.148 63.9897H254.151Z" stroke="black" stroke-width="0.75" stroke-miterlimit="10"/>
<path d="M280.151 64.1615C280.151 70.4109 256.151 70.4109 256.151 64.1615C256.151 57.9121 261.526 52.8486 268.149 52.8486C274.773 52.8486 280.147 57.916 280.147 64.1615H280.151Z" stroke="black" stroke-width="0.75" stroke-miterlimit="10"/>
<path d="M268.151 50.8486C271.465 50.8486 274.151 48.1623 274.151 44.8486C274.151 41.5349 271.465 38.8486 268.151 38.8486C264.838 38.8486 262.151 41.5349 262.151 44.8486C262.151 48.1623 264.838 50.8486 268.151 50.8486Z" stroke="black" stroke-width="0.75" stroke-miterlimit="10"/>
<path d="M239.651 48.8486C243.794 48.8486 247.151 45.4907 247.151 41.3486C247.151 37.2065 243.794 33.8486 239.651 33.8486C235.509 33.8486 232.151 37.2065 232.151 41.3486C232.151 45.4907 235.509 48.8486 239.651 48.8486Z" stroke="black" stroke-width="0.75" stroke-miterlimit="10"/>
<path d="M208 18.5H119.5" stroke="black"/>
<path d="M209 90H117" stroke="black"/>
<path d="M208.5 78H120" stroke="black"/>
<path d="M383 53L281 53" stroke="black"/>
<path d="M388.5 7H300" stroke="black"/>
<path d="M20.2159 12.4545V11.1818H25.2727V12.4545H23.5227V17H21.9659V12.4545H20.2159ZM25.8672 17V11.1818H27.4467V13.4545H29.5376V11.1818H31.1172V17H29.5376V14.7273H27.4467V17H25.8672ZM31.8672 17V11.1818H36.0604V12.4545H33.4467V13.4545H35.8445V14.7273H33.4467V15.7273H36.049V17H31.8672ZM43.4716 11.1818V17H42.1534L40.0511 13.9432H40.017V17H38.4375V11.1818H39.7784L41.8466 14.2273H41.892V11.1818H43.4716ZM45.7301 17H44.0256L45.946 11.1818H48.1051L50.0256 17H48.321L47.0483 12.7841H47.0028L45.7301 17ZM45.4119 14.7045H48.6165V15.8864H45.4119V14.7045ZM50.5859 11.1818H52.5518L53.9041 14.4773H53.9723L55.3246 11.1818H57.2905V17H55.745V13.6364H55.6996L54.4041 16.9545H53.4723L52.1768 13.6136H52.1314V17H50.5859V11.1818ZM58.0391 17V11.1818H62.2322V12.4545H59.6186V13.4545H62.0163V14.7273H59.6186V15.7273H62.2209V17H58.0391ZM70.2457 14.0909C70.2457 14.7386 70.1198 15.285 69.8679 15.7301C69.616 16.1733 69.276 16.5095 68.848 16.7386C68.42 16.9659 67.9427 17.0795 67.4162 17.0795C66.8859 17.0795 66.4067 16.965 65.9787 16.7358C65.5526 16.5047 65.2135 16.1676 64.9616 15.7244C64.7116 15.2794 64.5866 14.7348 64.5866 14.0909C64.5866 13.4432 64.7116 12.8977 64.9616 12.4545C65.2135 12.0095 65.5526 11.6733 65.9787 11.446C66.4067 11.2169 66.8859 11.1023 67.4162 11.1023C67.9427 11.1023 68.42 11.2169 68.848 11.446C69.276 11.6733 69.616 12.0095 69.8679 12.4545C70.1198 12.8977 70.2457 13.4432 70.2457 14.0909ZM68.6207 14.0909C68.6207 13.7424 68.5743 13.4489 68.4815 13.2102C68.3906 12.9697 68.2552 12.7879 68.0753 12.6648C67.8973 12.5398 67.6776 12.4773 67.4162 12.4773C67.1548 12.4773 66.9342 12.5398 66.7543 12.6648C66.5762 12.7879 66.4408 12.9697 66.348 13.2102C66.2571 13.4489 66.2116 13.7424 66.2116 14.0909C66.2116 14.4394 66.2571 14.7339 66.348 14.9744C66.4408 15.2131 66.5762 15.3949 66.7543 15.5199C66.9342 15.643 67.1548 15.7045 67.4162 15.7045C67.6776 15.7045 67.8973 15.643 68.0753 15.5199C68.2552 15.3949 68.3906 15.2131 68.4815 14.9744C68.5743 14.7339 68.6207 14.4394 68.6207 14.0909ZM70.9766 17V11.1818H75.0675V12.4545H72.5561V13.4545H74.8175V14.7273H72.5561V17H70.9766ZM77.2422 17V11.1818H81.4354V12.4545H78.8217V13.4545H81.2195V14.7273H78.8217V15.7273H81.424V17H77.2422ZM82.2188 17V11.1818H83.7983V15.7273H86.1506V17H82.2188ZM86.7891 17V11.1818H90.9822V12.4545H88.3686V13.4545H90.7663V14.7273H88.3686V15.7273H90.9709V17H86.7891ZM91.7656 11.1818H93.7315L95.0838 14.4773H95.152L96.5043 11.1818H98.4702V17H96.9247V13.6364H96.8793L95.5838 16.9545H94.652L93.3565 13.6136H93.3111V17H91.7656V11.1818ZM99.2188 17V11.1818H103.412V12.4545H100.798V13.4545H103.196V14.7273H100.798V15.7273H103.401V17H99.2188ZM109.229 11.1818V17H107.911L105.809 13.9432H105.775V17H104.195V11.1818H105.536L107.604 14.2273H107.65V11.1818H109.229ZM109.817 12.4545V11.1818H114.874V12.4545H113.124V17H111.567V12.4545H109.817Z" fill="black"/>
<path d="M394.216 49.4545V48.1818H399.273V49.4545H397.523V54H395.966V49.4545H394.216ZM399.867 54V48.1818H401.447V50.4545H403.538V48.1818H405.117V54H403.538V51.7273H401.447V54H399.867ZM405.867 54V48.1818H410.06V49.4545H407.447V50.4545H409.844V51.7273H407.447V52.7273H410.049V54H405.867ZM414.017 48.1818V54H412.438V48.1818H414.017ZM414.766 48.1818H416.732L418.084 51.4773H418.152L419.504 48.1818H421.47V54H419.925V50.6364H419.879L418.584 53.9545H417.652L416.357 50.6136H416.311V54H414.766V48.1818ZM423.73 54H422.026L423.946 48.1818H426.105L428.026 54H426.321L425.048 49.7841H425.003L423.73 54ZM423.412 51.7045H426.616V52.8864H423.412V51.7045ZM432.091 50.1023C432.066 50.0019 432.027 49.9138 431.974 49.8381C431.921 49.7604 431.855 49.6951 431.776 49.642C431.698 49.5871 431.607 49.5464 431.503 49.5199C431.401 49.4915 431.288 49.4773 431.165 49.4773C430.9 49.4773 430.673 49.5407 430.486 49.6676C430.3 49.7945 430.158 49.9773 430.06 50.2159C429.963 50.4545 429.915 50.7424 429.915 51.0795C429.915 51.4205 429.961 51.7121 430.054 51.9545C430.147 52.197 430.285 52.3826 430.469 52.5114C430.652 52.6402 430.881 52.7045 431.153 52.7045C431.394 52.7045 431.594 52.6695 431.753 52.5994C431.914 52.5294 432.034 52.4299 432.114 52.3011C432.193 52.1723 432.233 52.0208 432.233 51.8466L432.506 51.875H431.176V50.75H433.756V51.5568C433.756 52.0871 433.643 52.5407 433.418 52.9176C433.194 53.2926 432.885 53.5805 432.491 53.7812C432.099 53.9801 431.65 54.0795 431.142 54.0795C430.576 54.0795 430.079 53.9593 429.651 53.7188C429.223 53.4782 428.888 53.1354 428.648 52.6903C428.409 52.2453 428.29 51.7159 428.29 51.1023C428.29 50.6212 428.363 50.1951 428.509 49.8239C428.656 49.4527 428.861 49.1392 429.122 48.8835C429.384 48.6259 429.686 48.4318 430.028 48.3011C430.371 48.1686 430.739 48.1023 431.131 48.1023C431.475 48.1023 431.795 48.1515 432.091 48.25C432.388 48.3466 432.651 48.4848 432.878 48.6648C433.107 48.8428 433.292 49.054 433.432 49.2983C433.572 49.5426 433.657 49.8106 433.688 50.1023H432.091ZM434.492 54V48.1818H438.685V49.4545H436.072V50.4545H438.469V51.7273H436.072V52.7273H438.674V54H434.492ZM446.699 51.0909C446.699 51.7386 446.573 52.285 446.321 52.7301C446.069 53.1733 445.729 53.5095 445.301 53.7386C444.873 53.9659 444.396 54.0795 443.869 54.0795C443.339 54.0795 442.86 53.965 442.432 53.7358C442.006 53.5047 441.667 53.1676 441.415 52.7244C441.165 52.2794 441.04 51.7348 441.04 51.0909C441.04 50.4432 441.165 49.8977 441.415 49.4545C441.667 49.0095 442.006 48.6733 442.432 48.446C442.86 48.2169 443.339 48.1023 443.869 48.1023C444.396 48.1023 444.873 48.2169 445.301 48.446C445.729 48.6733 446.069 49.0095 446.321 49.4545C446.573 49.8977 446.699 50.4432 446.699 51.0909ZM445.074 51.0909C445.074 50.7424 445.027 50.4489 444.935 50.2102C444.844 49.9697 444.708 49.7879 444.528 49.6648C444.35 49.5398 444.131 49.4773 443.869 49.4773C443.608 49.4773 443.387 49.5398 443.207 49.6648C443.029 49.7879 442.894 49.9697 442.801 50.2102C442.71 50.4489 442.665 50.7424 442.665 51.0909C442.665 51.4394 442.71 51.7339 442.801 51.9744C442.894 52.2131 443.029 52.3949 443.207 52.5199C443.387 52.643 443.608 52.7045 443.869 52.7045C444.131 52.7045 444.35 52.643 444.528 52.5199C444.708 52.3949 444.844 52.2131 444.935 51.9744C445.027 51.7339 445.074 51.4394 445.074 51.0909ZM447.43 54V48.1818H451.521V49.4545H449.009V50.4545H451.271V51.7273H449.009V54H447.43ZM453.695 54V48.1818H457.888V49.4545H455.275V50.4545H457.673V51.7273H455.275V52.7273H457.877V54H453.695ZM458.672 54V48.1818H460.251V52.7273H462.604V54H458.672ZM463.242 54V48.1818H467.435V49.4545H464.822V50.4545H467.219V51.7273H464.822V52.7273H467.424V54H463.242ZM468.219 48.1818H470.185L471.537 51.4773H471.605L472.957 48.1818H474.923V54H473.378V50.6364H473.332L472.037 53.9545H471.105L469.81 50.6136H469.764V54H468.219V48.1818ZM475.672 54V48.1818H479.865V49.4545H477.251V50.4545H479.649V51.7273H477.251V52.7273H479.854V54H475.672ZM485.683 48.1818V54H484.364L482.262 50.9432H482.228V54H480.648V48.1818H481.989L484.058 51.2273H484.103V48.1818H485.683ZM486.271 49.4545V48.1818H491.327V49.4545H489.577V54H488.021V49.4545H486.271Z" fill="black"/>
<path d="M404.216 3.45455V2.18182H409.273V3.45455H407.523V8H405.966V3.45455H404.216ZM409.867 8V2.18182H411.447V4.45455H413.538V2.18182H415.117V8H413.538V5.72727H411.447V8H409.867ZM415.867 8V2.18182H420.06V3.45455H417.447V4.45455H419.844V5.72727H417.447V6.72727H420.049V8H415.867ZM422.278 3.45455V2.18182H427.335V3.45455H425.585V8H424.028V3.45455H422.278ZM427.691 2.18182H429.452L430.589 4.54545H430.634L431.771 2.18182H433.532L431.396 6.17045V8H429.827V6.17045L427.691 2.18182ZM434.047 8V2.18182H436.558C436.99 2.18182 437.368 2.26705 437.692 2.4375C438.016 2.60795 438.268 2.84754 438.447 3.15625C438.627 3.46496 438.717 3.82576 438.717 4.23864C438.717 4.6553 438.625 5.0161 438.439 5.32102C438.255 5.62595 437.997 5.8608 437.663 6.02557C437.332 6.19034 436.945 6.27273 436.501 6.27273H435.001V5.04545H436.183C436.369 5.04545 436.527 5.01326 436.658 4.94886C436.79 4.88258 436.892 4.78883 436.962 4.66761C437.034 4.5464 437.07 4.40341 437.07 4.23864C437.07 4.07197 437.034 3.92992 436.962 3.8125C436.892 3.69318 436.79 3.60227 436.658 3.53977C436.527 3.47538 436.369 3.44318 436.183 3.44318H435.626V8H434.047ZM439.297 8V2.18182H443.49V3.45455H440.876V4.45455H443.274V5.72727H440.876V6.72727H443.479V8H439.297ZM451.504 5.09091C451.504 5.73864 451.378 6.28504 451.126 6.73011C450.874 7.1733 450.534 7.50947 450.106 7.73864C449.678 7.96591 449.201 8.07955 448.674 8.07955C448.144 8.07955 447.665 7.96496 447.237 7.7358C446.81 7.50473 446.471 7.16761 446.219 6.72443C445.969 6.27936 445.844 5.73485 445.844 5.09091C445.844 4.44318 445.969 3.89773 446.219 3.45455C446.471 3.00947 446.81 2.6733 447.237 2.44602C447.665 2.21686 448.144 2.10227 448.674 2.10227C449.201 2.10227 449.678 2.21686 450.106 2.44602C450.534 2.6733 450.874 3.00947 451.126 3.45455C451.378 3.89773 451.504 4.44318 451.504 5.09091ZM449.879 5.09091C449.879 4.74242 449.832 4.44886 449.739 4.21023C449.648 3.9697 449.513 3.78788 449.333 3.66477C449.155 3.53977 448.935 3.47727 448.674 3.47727C448.413 3.47727 448.192 3.53977 448.012 3.66477C447.834 3.78788 447.699 3.9697 447.606 4.21023C447.515 4.44886 447.469 4.74242 447.469 5.09091C447.469 5.43939 447.515 5.7339 447.606 5.97443C447.699 6.21307 447.834 6.39489 448.012 6.51989C448.192 6.64299 448.413 6.70455 448.674 6.70455C448.935 6.70455 449.155 6.64299 449.333 6.51989C449.513 6.39489 449.648 6.21307 449.739 5.97443C449.832 5.7339 449.879 5.43939 449.879 5.09091ZM452.234 8V2.18182H456.325V3.45455H453.814V4.45455H456.075V5.72727H453.814V8H452.234ZM458.5 8V2.18182H460.08V4.45455H462.17V2.18182H463.75V8H462.17V5.72727H460.08V8H458.5ZM470.136 5.09091C470.136 5.73864 470.01 6.28504 469.759 6.73011C469.507 7.1733 469.167 7.50947 468.739 7.73864C468.311 7.96591 467.833 8.07955 467.307 8.07955C466.777 8.07955 466.297 7.96496 465.869 7.7358C465.443 7.50473 465.104 7.16761 464.852 6.72443C464.602 6.27936 464.477 5.73485 464.477 5.09091C464.477 4.44318 464.602 3.89773 464.852 3.45455C465.104 3.00947 465.443 2.6733 465.869 2.44602C466.297 2.21686 466.777 2.10227 467.307 2.10227C467.833 2.10227 468.311 2.21686 468.739 2.44602C469.167 2.6733 469.507 3.00947 469.759 3.45455C470.01 3.89773 470.136 4.44318 470.136 5.09091ZM468.511 5.09091C468.511 4.74242 468.465 4.44886 468.372 4.21023C468.281 3.9697 468.146 3.78788 467.966 3.66477C467.788 3.53977 467.568 3.47727 467.307 3.47727C467.045 3.47727 466.825 3.53977 466.645 3.66477C466.467 3.78788 466.331 3.9697 466.239 4.21023C466.148 4.44886 466.102 4.74242 466.102 5.09091C466.102 5.43939 466.148 5.7339 466.239 5.97443C466.331 6.21307 466.467 6.39489 466.645 6.51989C466.825 6.64299 467.045 6.70455 467.307 6.70455C467.568 6.70455 467.788 6.64299 467.966 6.51989C468.146 6.39489 468.281 6.21307 468.372 5.97443C468.465 5.7339 468.511 5.43939 468.511 5.09091ZM470.867 8V2.18182H473.379C473.81 2.18182 474.188 2.26042 474.512 2.41761C474.836 2.57481 475.088 2.80114 475.268 3.09659C475.448 3.39205 475.538 3.74621 475.538 4.15909C475.538 4.57576 475.445 4.92708 475.259 5.21307C475.076 5.49905 474.817 5.71496 474.484 5.8608C474.152 6.00663 473.765 6.07955 473.322 6.07955H471.822V4.85227H473.004C473.189 4.85227 473.347 4.82955 473.478 4.78409C473.611 4.73674 473.712 4.66193 473.782 4.55966C473.854 4.45739 473.89 4.32386 473.89 4.15909C473.89 3.99242 473.854 3.85701 473.782 3.75284C473.712 3.64678 473.611 3.56913 473.478 3.51989C473.347 3.46875 473.189 3.44318 473.004 3.44318H472.447V8H470.867ZM474.276 5.32955L475.731 8H474.015L472.594 5.32955H474.276ZM476.211 2.18182H478.177L479.529 5.47727H479.597L480.95 2.18182H482.915V8H481.37V4.63636H481.325L480.029 7.95455H479.097L477.802 4.61364H477.756V8H476.211V2.18182ZM489.3 5.09091C489.3 5.73864 489.174 6.28504 488.923 6.73011C488.671 7.1733 488.331 7.50947 487.903 7.73864C487.475 7.96591 486.997 8.07955 486.471 8.07955C485.941 8.07955 485.461 7.96496 485.033 7.7358C484.607 7.50473 484.268 7.16761 484.016 6.72443C483.766 6.27936 483.641 5.73485 483.641 5.09091C483.641 4.44318 483.766 3.89773 484.016 3.45455C484.268 3.00947 484.607 2.6733 485.033 2.44602C485.461 2.21686 485.941 2.10227 486.471 2.10227C486.997 2.10227 487.475 2.21686 487.903 2.44602C488.331 2.6733 488.671 3.00947 488.923 3.45455C489.174 3.89773 489.3 4.44318 489.3 5.09091ZM487.675 5.09091C487.675 4.74242 487.629 4.44886 487.536 4.21023C487.445 3.9697 487.31 3.78788 487.13 3.66477C486.952 3.53977 486.732 3.47727 486.471 3.47727C486.21 3.47727 485.989 3.53977 485.809 3.66477C485.631 3.78788 485.496 3.9697 485.403 4.21023C485.312 4.44886 485.266 4.74242 485.266 5.09091C485.266 5.43939 485.312 5.7339 485.403 5.97443C485.496 6.21307 485.631 6.39489 485.809 6.51989C485.989 6.64299 486.21 6.70455 486.471 6.70455C486.732 6.70455 486.952 6.64299 487.13 6.51989C487.31 6.39489 487.445 6.21307 487.536 5.97443C487.629 5.7339 487.675 5.43939 487.675 5.09091ZM495.065 2.18182V8H493.747L491.645 4.94318H491.611V8H490.031V2.18182H491.372L493.44 5.22727H493.486V2.18182H495.065ZM495.812 8V2.18182H500.006V3.45455H497.392V4.45455H499.79V5.72727H497.392V6.72727H499.994V8H495.812Z" fill="black"/>
<path d="M0.215909 88.4545V87.1818H5.27273V88.4545H3.52273V93H1.96591V88.4545H0.215909ZM5.86719 93V87.1818H7.44673V89.4545H9.53764V87.1818H11.1172V93H9.53764V90.7273H7.44673V93H5.86719ZM11.8672 93V87.1818H16.0604V88.4545H13.4467V89.4545H15.8445V90.7273H13.4467V91.7273H16.049V93H11.8672ZM18.4375 93V87.1818H22.5284V88.4545H20.017V89.4545H22.2784V90.7273H20.017V93H18.4375ZM26.5526 87.1818H28.1321V90.9091C28.1321 91.3523 28.026 91.7358 27.8139 92.0597C27.6037 92.3816 27.3101 92.6307 26.9332 92.8068C26.5563 92.9811 26.1188 93.0682 25.6207 93.0682C25.1188 93.0682 24.6795 92.9811 24.3026 92.8068C23.9257 92.6307 23.6321 92.3816 23.4219 92.0597C23.2135 91.7358 23.1094 91.3523 23.1094 90.9091V87.1818H24.6889V90.7727C24.6889 90.9527 24.7287 91.1136 24.8082 91.2557C24.8878 91.3958 24.9976 91.5057 25.1378 91.5852C25.2798 91.6648 25.4408 91.7045 25.6207 91.7045C25.8026 91.7045 25.9635 91.6648 26.1037 91.5852C26.2438 91.5057 26.3537 91.3958 26.4332 91.2557C26.5128 91.1136 26.5526 90.9527 26.5526 90.7727V87.1818ZM33.9169 87.1818V93H32.5987L30.4964 89.9432H30.4624V93H28.8828V87.1818H30.2237L32.2919 90.2273H32.3374V87.1818H33.9169ZM40.0959 89.3636H38.4936C38.4822 89.2311 38.4519 89.1108 38.4027 89.0028C38.3554 88.8949 38.2891 88.8021 38.2038 88.7244C38.1205 88.6449 38.0192 88.5843 37.8999 88.5426C37.7805 88.4991 37.6451 88.4773 37.4936 88.4773C37.2285 88.4773 37.004 88.5417 36.8203 88.6705C36.6385 88.7992 36.5002 88.9839 36.4055 89.2244C36.3127 89.465 36.2663 89.7538 36.2663 90.0909C36.2663 90.447 36.3137 90.7453 36.4084 90.9858C36.505 91.2244 36.6442 91.4044 36.826 91.5256C37.0078 91.6449 37.2266 91.7045 37.4822 91.7045C37.6281 91.7045 37.7588 91.6866 37.8743 91.6506C37.9898 91.6127 38.0902 91.5587 38.1754 91.4886C38.2607 91.4186 38.3298 91.3343 38.3828 91.2358C38.4377 91.1354 38.4747 91.0227 38.4936 90.8977L40.0959 90.9091C40.0769 91.1553 40.0078 91.4062 39.8885 91.6619C39.7692 91.9157 39.5997 92.1506 39.38 92.3665C39.1622 92.5805 38.8923 92.7528 38.5703 92.8835C38.2483 93.0142 37.8743 93.0795 37.4482 93.0795C36.9141 93.0795 36.4349 92.965 36.0107 92.7358C35.5883 92.5066 35.254 92.1695 35.0078 91.7244C34.7635 91.2794 34.6413 90.7348 34.6413 90.0909C34.6413 89.4432 34.7663 88.8977 35.0163 88.4545C35.2663 88.0095 35.6035 87.6733 36.0277 87.446C36.4519 87.2169 36.9254 87.1023 37.4482 87.1023C37.8156 87.1023 38.1536 87.1525 38.4624 87.2528C38.7711 87.3532 39.0419 87.5 39.2749 87.6932C39.5078 87.8845 39.6953 88.1203 39.8374 88.4006C39.9794 88.6809 40.0656 89.0019 40.0959 89.3636ZM40.6534 88.4545V87.1818H45.7102V88.4545H43.9602V93H42.4034V88.4545H40.6534ZM47.8842 87.1818V93H46.3047V87.1818H47.8842ZM54.2692 90.0909C54.2692 90.7386 54.1432 91.285 53.8913 91.7301C53.6394 92.1733 53.2995 92.5095 52.8714 92.7386C52.4434 92.9659 51.9661 93.0795 51.4396 93.0795C50.9093 93.0795 50.4302 92.965 50.0021 92.7358C49.576 92.5047 49.237 92.1676 48.9851 91.7244C48.7351 91.2794 48.6101 90.7348 48.6101 90.0909C48.6101 89.4432 48.7351 88.8977 48.9851 88.4545C49.237 88.0095 49.576 87.6733 50.0021 87.446C50.4302 87.2169 50.9093 87.1023 51.4396 87.1023C51.9661 87.1023 52.4434 87.2169 52.8714 87.446C53.2995 87.6733 53.6394 88.0095 53.8913 88.4545C54.1432 88.8977 54.2692 89.4432 54.2692 90.0909ZM52.6442 90.0909C52.6442 89.7424 52.5978 89.4489 52.505 89.2102C52.4141 88.9697 52.2786 88.7879 52.0987 88.6648C51.9207 88.5398 51.701 88.4773 51.4396 88.4773C51.1783 88.4773 50.9576 88.5398 50.7777 88.6648C50.5997 88.7879 50.4643 88.9697 50.3714 89.2102C50.2805 89.4489 50.2351 89.7424 50.2351 90.0909C50.2351 90.4394 50.2805 90.7339 50.3714 90.9744C50.4643 91.2131 50.5997 91.3949 50.7777 91.5199C50.9576 91.643 51.1783 91.7045 51.4396 91.7045C51.701 91.7045 51.9207 91.643 52.0987 91.5199C52.2786 91.3949 52.4141 91.2131 52.505 90.9744C52.5978 90.7339 52.6442 90.4394 52.6442 90.0909ZM60.0341 87.1818V93H58.7159L56.6136 89.9432H56.5795V93H55V87.1818H56.3409L58.4091 90.2273H58.4545V87.1818H60.0341ZM62.2926 93H60.5881L62.5085 87.1818H64.6676L66.5881 93H64.8835L63.6108 88.7841H63.5653L62.2926 93ZM61.9744 90.7045H65.179V91.8864H61.9744V90.7045ZM67.1484 93V87.1818H68.728V91.7273H71.0803V93H67.1484ZM73.3125 93V87.1818H77.5057V88.4545H74.892V89.4545H77.2898V90.7273H74.892V91.7273H77.4943V93H73.3125ZM78.2891 93V87.1818H79.8686V91.7273H82.2209V93H78.2891ZM82.8594 93V87.1818H87.0526V88.4545H84.4389V89.4545H86.8366V90.7273H84.4389V91.7273H87.0412V93H82.8594ZM87.8359 87.1818H89.8018L91.1541 90.4773H91.2223L92.5746 87.1818H94.5405V93H92.995V89.6364H92.9496L91.6541 92.9545H90.7223L89.4268 89.6136H89.3814V93H87.8359V87.1818ZM95.2891 93V87.1818H99.4822V88.4545H96.8686V89.4545H99.2663V90.7273H96.8686V91.7273H99.4709V93H95.2891ZM105.3 87.1818V93H103.982L101.879 89.9432H101.845V93H100.266V87.1818H101.607L103.675 90.2273H103.72V87.1818H105.3ZM105.888 88.4545V87.1818H110.945V88.4545H109.195V93H107.638V88.4545H105.888Z" fill="black"/>
<path d="M57.9545 75.1818V81H56.375V75.1818H57.9545ZM58.7031 75.1818H60.669L62.0213 78.4773H62.0895L63.4418 75.1818H65.4077V81H63.8622V77.6364H63.8168L62.5213 80.9545H61.5895L60.294 77.6136H60.2486V81H58.7031V75.1818ZM66.1562 81V75.1818H68.6676C69.0994 75.1818 69.4773 75.267 69.8011 75.4375C70.125 75.608 70.3769 75.8475 70.5568 76.1562C70.7367 76.465 70.8267 76.8258 70.8267 77.2386C70.8267 77.6553 70.7339 78.0161 70.5483 78.321C70.3646 78.6259 70.1061 78.8608 69.7727 79.0256C69.4413 79.1903 69.054 79.2727 68.6108 79.2727H67.1108V78.0455H68.2926C68.4782 78.0455 68.6364 78.0133 68.767 77.9489C68.8996 77.8826 69.0009 77.7888 69.071 77.6676C69.143 77.5464 69.179 77.4034 69.179 77.2386C69.179 77.072 69.143 76.9299 69.071 76.8125C69.0009 76.6932 68.8996 76.6023 68.767 76.5398C68.6364 76.4754 68.4782 76.4432 68.2926 76.4432H67.7358V81H66.1562ZM72.1911 81H70.4865L72.407 75.1818H74.5661L76.4865 81H74.782L73.5092 76.7841H73.4638L72.1911 81ZM71.8729 78.7045H75.0774V79.8864H71.8729V78.7045ZM82.2053 77.3636H80.603C80.5916 77.2311 80.5613 77.1108 80.5121 77.0028C80.4647 76.8949 80.3984 76.8021 80.3132 76.7244C80.2299 76.6449 80.1286 76.5843 80.0092 76.5426C79.8899 76.4991 79.7545 76.4773 79.603 76.4773C79.3378 76.4773 79.1134 76.5417 78.9297 76.6705C78.7479 76.7992 78.6096 76.9839 78.5149 77.2244C78.4221 77.465 78.3757 77.7538 78.3757 78.0909C78.3757 78.447 78.4231 78.7453 78.5178 78.9858C78.6143 79.2244 78.7536 79.4044 78.9354 79.5256C79.1172 79.6449 79.3359 79.7045 79.5916 79.7045C79.7375 79.7045 79.8681 79.6866 79.9837 79.6506C80.0992 79.6127 80.1996 79.5587 80.2848 79.4886C80.37 79.4186 80.4392 79.3343 80.4922 79.2358C80.5471 79.1354 80.584 79.0227 80.603 78.8977L82.2053 78.9091C82.1863 79.1553 82.1172 79.4062 81.9979 79.6619C81.8786 79.9157 81.709 80.1506 81.4893 80.3665C81.2715 80.5805 81.0017 80.7528 80.6797 80.8835C80.3577 81.0142 79.9837 81.0795 79.5575 81.0795C79.0234 81.0795 78.5443 80.965 78.12 80.7358C77.6977 80.5066 77.3634 80.1695 77.1172 79.7244C76.8729 79.2794 76.7507 78.7348 76.7507 78.0909C76.7507 77.4432 76.8757 76.8977 77.1257 76.4545C77.3757 76.0095 77.7128 75.6733 78.1371 75.446C78.5613 75.2169 79.0348 75.1023 79.5575 75.1023C79.925 75.1023 80.263 75.1525 80.5717 75.2528C80.8804 75.3532 81.1513 75.5 81.3842 75.6932C81.6172 75.8845 81.8047 76.1203 81.9467 76.4006C82.0888 76.6809 82.175 77.0019 82.2053 77.3636ZM82.7628 76.4545V75.1818H87.8196V76.4545H86.0696V81H84.5128V76.4545H82.7628ZM90.0078 81V75.1818H91.5874V79.7273H93.9396V81H90.0078ZM94.5781 81V75.1818H98.7713V76.4545H96.1577V77.4545H98.5554V78.7273H96.1577V79.7273H98.7599V81H94.5781ZM101.146 75.1818L102.339 79.2841H102.384L103.577 75.1818H105.362L103.441 81H101.282L99.3615 75.1818H101.146ZM105.922 81V75.1818H110.115V76.4545H107.501V77.4545H109.899V78.7273H107.501V79.7273H110.104V81H105.922ZM110.898 81V75.1818H112.478V79.7273H114.83V81H110.898Z" fill="black"/>
</svg>
