<svg width="43" height="50" viewBox="0 0 43 50" fill="none" xmlns="http://www.w3.org/2000/svg">
<path d="M41.6104 23.8585C41.367 31.0759 39.0523 37.5929 34.8713 43.448C33.6114 45.216 32.0868 46.7535 30.2205 47.9151C28.5123 48.9785 26.7229 49.2006 24.7925 48.6326C22.3839 47.9279 19.924 47.8852 17.5239 48.5899C15.2134 49.2689 13.1849 48.8931 11.2801 47.4966C8.80743 45.6858 6.99239 43.3284 5.4635 40.7105C3.24275 36.9011 1.67969 32.8482 0.983569 28.4879C0.60348 26.0835 0.240473 23.6663 0.752952 21.2277C1.70958 16.6709 4.57947 14.0616 9.20033 13.4081C11.6944 13.0537 14.1372 13.3441 16.5886 13.7156C17.9381 13.9206 19.3004 14.164 20.6542 14.1555C22.2643 14.147 23.8786 13.9462 25.4758 13.7199C27.9742 13.3697 30.4597 13.0024 32.9879 13.421C36.3447 13.9804 39.0822 15.4111 40.5684 18.6525C41.32 20.2967 41.6745 22.0349 41.6104 23.8542V23.8585Z" stroke="#241F20" stroke-miterlimit="10"/>
<path d="M19.407 4.23051C21.6876 7.40361 20.6583 12.0415 20.6583 12.0415C20.6583 12.0415 15.935 11.5333 13.6587 8.35597C11.3782 5.18286 12.4074 0.544922 12.4074 0.544922C12.4074 0.544922 17.1308 1.05313 19.407 4.23051Z" stroke="#241F20" stroke-miterlimit="10"/>
<path d="M28.4998 10.5449C26.2948 12.4742 22.5076 12.2926 22.5076 12.2926C22.5076 12.2926 22.3 8.98281 24.505 7.04942C26.7099 5.12007 30.4972 5.3017 30.4972 5.3017C30.4972 5.3017 30.7047 8.61147 28.4998 10.5449Z" stroke="#241F20" stroke-miterlimit="10"/>
</svg>
