<svg width="39" height="57" viewBox="0 0 39 57" fill="none" xmlns="http://www.w3.org/2000/svg">
<g clip-path="url(#clip0_9_1572)">
<path d="M19.4327 56C6.22617 55.9846 -2.42743 42.8098 2.31145 29.7373C3.19088 27.307 4.55274 24.9841 6.05029 22.8813C8.29158 19.7244 9.54288 16.3834 9.53283 12.4642C9.52278 8.06404 11.2465 4.46206 15.0808 2.21082C19.3724 -0.301349 24.6591 1.21824 27.4431 5.63373C28.7044 7.63937 29.4633 9.83944 29.3879 12.2237C29.2522 16.4294 30.7095 19.9495 33.177 23.2803C37.358 28.934 39.1219 35.2886 37.2626 42.2982C35.1017 50.4435 27.7546 56.0051 19.4377 55.9949L19.4327 56ZM28.7195 42.7228C29.4482 40.2618 29.4834 37.6422 28.9557 35.13C28.1466 31.308 26.5435 28.1921 23.5585 25.7669C20.9755 23.6692 17.9452 23.7357 15.312 25.772C10.6183 29.3996 8.25138 37.4478 10.2163 43.0759C11.6585 47.1997 15.1612 50.0393 19.0206 50.2133C23.0509 50.3924 26.6792 47.9825 28.3728 43.7308C28.5034 43.3982 28.619 43.0605 28.7195 42.7228Z" fill="white" stroke="#241F20" stroke-miterlimit="10"/>
</g>
<defs>
<clipPath id="clip0_9_1572">
<rect width="39" height="57" fill="white"/>
</clipPath>
</defs>
</svg>
