<svg width="44" height="41" viewBox="0 0 44 41" fill="none" xmlns="http://www.w3.org/2000/svg">
<path d="M19.4083 40.0911C13.1982 39.6268 7.12886 37.1057 2.65229 31.3792C1.82374 30.3161 1.30087 28.9762 0.782025 27.7013C0.38384 26.7238 0.315464 25.6038 1.18021 24.8055C2.06104 23.995 3.12287 24.2475 4.15252 24.5937C6.41695 25.3554 8.64518 26.2636 10.9579 26.8297C20.2207 29.1024 28.7918 24.9318 33.031 16.2687C33.6705 14.9613 34.4991 13.7435 35.3196 12.542C36.6066 10.6644 36.6187 8.57498 36.5061 6.42856C36.4538 5.40626 36.4096 4.36767 36.5262 3.35352C36.5785 2.88513 36.9727 2.42082 37.2984 2.02575C37.6202 1.63475 38.0626 1.34558 38.4206 0.983087C38.9475 0.449536 39.5267 0.376224 40.1903 0.673546C40.8821 0.983087 41.1797 1.55737 41.0189 2.26198C40.7373 3.48792 40.3794 4.69758 40.0174 5.90316C39.6071 7.26758 39.4462 8.62386 40.0415 9.96792C40.315 10.587 40.5965 11.2142 40.9666 11.7763C43.227 15.2097 43.5487 18.9894 42.5875 22.8302C40.5724 30.8741 35.5046 36.1363 27.7621 38.7837C25.3247 39.6146 22.8149 40.0341 19.4042 40.0911H19.4083Z" stroke="#241F20" stroke-miterlimit="10"/>
</svg>
