<svg width="60" height="52" viewBox="0 0 60 52" fill="none" xmlns="http://www.w3.org/2000/svg">
<g clip-path="url(#clip0_9_1086)">
<path d="M56.4229 35.8131C54.8996 28.9163 45.9952 26.1393 40.8358 30.9214C39.1855 32.4515 37.0138 32.5794 35.4542 31.0812C33.1783 28.898 30.4943 28.2769 27.4748 28.6696C22.5647 29.3045 18.7926 34.3195 19.4681 39.266C19.9034 42.4358 21.4494 44.957 23.8069 47.0078C27.8783 50.5476 32.7748 51.6529 38.5462 51.831C39.521 51.726 41.058 51.6483 42.5677 51.3834C47.1151 50.5841 51.1547 48.8028 54.0382 44.9707C56.0829 42.2577 57.1755 39.2432 56.4139 35.8177L56.4229 35.8131Z" stroke="black" stroke-width="0.75" stroke-miterlimit="10"/>
<path d="M31.8 31.6019C31.8 31.6019 36.0346 38.3297 43.6785 32.4834" stroke="black" stroke-width="0.75" stroke-miterlimit="10"/>
<path d="M2.95779 29.4838C6.61202 33.6356 13.7754 32.1238 15.5073 26.8667C16.0604 25.1859 17.5022 24.2633 19.1388 24.6926C21.5281 25.3183 23.6046 24.7154 25.5269 23.2904C28.6598 20.9701 29.3534 16.0784 27.0185 12.9452C25.5224 10.9355 23.5049 9.79826 21.1156 9.29584C16.9808 8.42803 13.2041 9.54705 9.16907 11.6389C8.53887 12.0865 7.51424 12.7305 6.57575 13.4887C3.76481 15.777 1.66567 18.5494 1.13068 22.2856C0.754379 24.9347 1.13975 27.4193 2.95779 29.4838Z" stroke="black" stroke-width="0.75" stroke-miterlimit="10"/>
<path d="M20.6241 23.714C20.6241 23.714 15.1745 20.7224 12.1323 27.6648" stroke="black" stroke-width="0.75" stroke-miterlimit="10"/>
<path d="M55.4466 4.38718C51.7924 0.2354 44.6291 1.74721 42.8972 7.00431C42.344 8.68512 40.9023 9.60773 39.2656 9.1784C36.8763 8.55266 34.7998 9.15556 32.8775 10.5806C29.7447 12.9008 29.051 17.7925 31.3859 20.9258C32.882 22.9354 34.8996 24.0727 37.2889 24.5751C41.4237 25.443 45.2003 24.3239 49.2354 22.2321C49.8656 21.7845 50.8902 21.1405 51.8287 20.3823C54.6487 18.0894 56.7478 15.317 57.2828 11.5763C57.6591 8.92719 57.2738 6.44252 55.4557 4.37804L55.4466 4.38718Z" stroke="black" stroke-width="0.75" stroke-miterlimit="10"/>
<path d="M36.9487 10.9414C36.9487 10.9414 42.3983 13.9331 45.4405 6.9906" stroke="black" stroke-width="0.75" stroke-miterlimit="10"/>
</g>
<defs>
<clipPath id="clip0_9_1086">
<rect width="60" height="52" fill="white"/>
</clipPath>
</defs>
</svg>
