<svg width="50" height="47" viewBox="0 0 50 47" fill="none" xmlns="http://www.w3.org/2000/svg">
<g clip-path="url(#clip0_9_1574)">
<path d="M48.0602 25.9107C48.6427 24.9351 48.9764 23.795 48.9764 22.5755C48.9764 19.5748 46.9574 17.0507 44.2089 16.2736C45.1816 15.1278 45.7698 13.6474 45.7698 12.0251C45.7698 8.40625 42.8459 5.47371 39.2377 5.47371C37.2696 5.47371 35.5107 6.35291 34.3118 7.73126C33.554 4.95754 31.026 2.92122 28.0229 2.92122C26.5468 2.92122 25.1839 3.42037 24.0924 4.24852C23.114 1.87186 20.7782 0.204224 18.058 0.204224C14.4498 0.204224 11.5259 3.13676 11.5259 6.75564C7.91771 6.75564 4.99384 9.68817 4.99384 13.307C4.99384 14.3167 5.22571 15.2696 5.6329 16.1205C2.55067 16.6423 0.197998 19.3309 0.197998 22.5698C0.197998 24.8954 1.40827 26.9317 3.22933 28.0945C2.39798 29.1949 1.89464 30.5619 1.89464 32.0481C1.89464 35.6669 4.81852 38.5995 8.4267 38.5995C9.81795 38.5995 11.1017 38.1627 12.1593 37.4196C11.7521 38.2762 11.5202 39.2291 11.5202 40.2387C11.5202 43.8576 14.4441 46.7902 18.0523 46.7902C20.8065 46.7902 23.1592 45.0771 24.1206 42.6551C25.0821 45.0771 27.4291 46.7902 30.189 46.7902C32.6604 46.7902 34.8038 45.4175 35.9179 43.3868C36.1837 43.4209 36.4496 43.4435 36.721 43.4435C40.3292 43.4435 43.2531 40.511 43.2531 36.8921C46.8613 36.8921 49.7851 33.9596 49.7851 30.3407C49.7851 28.6334 49.1291 27.0792 48.0602 25.9164V25.9107Z" stroke="black" stroke-width="0.75" stroke-miterlimit="10"/>
</g>
<defs>
<clipPath id="clip0_9_1574">
<rect width="50" height="47" fill="white"/>
</clipPath>
</defs>
</svg>
