<svg width="39" height="42" viewBox="0 0 39 42" fill="none" xmlns="http://www.w3.org/2000/svg">
<path d="M6.86116 31.1334C7.02445 30.2621 3.31912 29.6605 2.4479 29.4972C1.57668 29.3339 0.739958 29.9057 0.576671 30.777C0.413383 31.6482 0.985192 32.4849 1.85641 32.6482C2.72763 32.8115 6.69693 32.001 6.86021 31.1298L6.86116 31.1334Z" stroke="black" stroke-width="0.75" stroke-linecap="round" stroke-linejoin="round"/>
<path d="M18.4168 34.1278C18.5801 33.2566 19.5826 26.6478 18.7149 26.4836C17.8437 26.3203 15.4291 32.6651 15.2649 33.5328C15.1016 34.404 15.6734 35.2407 16.5446 35.404C17.4158 35.5673 18.2526 34.9955 18.4158 34.1242L18.4168 34.1278Z" stroke="black" stroke-width="0.75" stroke-linecap="round" stroke-linejoin="round"/>
<path d="M34.2 37.0928C34.5177 35.4018 33.4059 33.7766 31.715 33.4589C30.024 33.1411 24.3126 33.4851 23.9939 35.1725C23.6762 36.8635 28.8777 39.2557 30.5652 39.5743C32.2561 39.892 33.8814 38.7802 34.1991 37.0893L34.2 37.0928Z" stroke="black" stroke-width="0.75" stroke-linecap="round" stroke-linejoin="round"/>
<path d="M4.43865 18.9057C4.88718 16.5185 8.59446 14.2367 6.20373 13.7892C3.81299 13.3416 1.51377 14.9136 1.06525 17.3008C0.616726 19.688 2.18968 21.9908 4.57689 22.4393C6.9641 22.8878 3.9866 21.2939 4.43418 18.9032L4.43865 18.9057Z" stroke="black" stroke-width="0.75" stroke-linecap="round" stroke-linejoin="round"/>
<path d="M18.6319 20.604C18.9617 18.8456 14.1126 16.4572 12.3542 16.1273C10.5958 15.7975 8.90307 16.9538 8.5697 18.7132C8.23985 20.4716 9.39619 22.1643 11.1556 22.4977C12.914 22.8275 18.2985 22.3634 18.6283 20.6049L18.6319 20.604Z" stroke="black" stroke-width="0.75" stroke-linecap="round" stroke-linejoin="round"/>
<path d="M35.9623 23.8572C36.206 22.5526 35.3482 21.2975 34.0437 21.0539C32.7391 20.8102 26.1527 20.667 25.9091 21.9715C25.6654 23.2761 31.8544 25.5322 33.1555 25.7768C34.4601 26.0204 35.7152 25.1627 35.9588 23.8581L35.9623 23.8572Z" stroke="black" stroke-width="0.75" stroke-linecap="round" stroke-linejoin="round"/>
<path d="M14.816 6.3203C15.1337 4.62936 9.33892 2.12408 7.64798 1.80637C5.95704 1.48867 4.33175 2.60049 4.01405 4.29144C3.69634 5.98238 4.80817 7.60766 6.49911 7.92537C8.19005 8.24307 14.4983 8.01124 14.816 6.3203Z" stroke="black" stroke-width="0.75" stroke-linecap="round" stroke-linejoin="round"/>
<path d="M24.0469 8.05604C24.2824 6.79142 23.451 5.57839 22.189 5.33846C20.9244 5.103 19.7113 5.93433 19.4714 7.19637C19.2359 8.46098 19.6188 12.0612 20.8834 12.2967C22.148 12.5321 23.8105 9.31713 24.0469 8.05604Z" stroke="black" stroke-width="0.75" stroke-linecap="round" stroke-linejoin="round"/>
<path d="M38.4251 10.7551C38.6687 9.45052 37.811 8.19544 36.5064 7.9518C35.2018 7.70816 30.8086 10.4193 30.5649 11.7239C30.3213 13.0285 34.3162 12.4266 35.6218 12.6738C36.9263 12.9174 38.1814 12.0597 38.4251 10.7551Z" stroke="black" stroke-width="0.75" stroke-linecap="round" stroke-linejoin="round"/>
</svg>
