<svg width="60" height="61" viewBox="0 0 60 61" fill="none" xmlns="http://www.w3.org/2000/svg">
<g clip-path="url(#clip0_9_1396)">
<path d="M11.5558 12.4489L0.237549 23.6759L11.526 35.336L22.8442 24.1091L11.5558 12.4489Z" fill="white" stroke="black" stroke-width="0.75" stroke-miterlimit="10"/>
<path d="M23.8634 25.1563L12.5452 36.3833L23.8336 48.0434L35.1519 36.8165L23.8634 25.1563Z" fill="white" stroke="black" stroke-width="0.75" stroke-miterlimit="10"/>
<path d="M23.8656 0.242813L12.5474 11.4698L23.8358 23.1299L35.1541 11.9029L23.8656 0.242813Z" fill="white" stroke="black" stroke-width="0.75" stroke-miterlimit="10"/>
<path d="M36.1666 12.9501L24.8484 24.1771L36.1368 35.8372L47.4551 24.6102L36.1666 12.9501Z" fill="white" stroke="black" stroke-width="0.75" stroke-miterlimit="10"/>
<path d="M36.1676 37.865L24.8494 49.092L36.1378 60.7521L47.4561 49.5251L36.1676 37.865Z" fill="white" stroke="black" stroke-width="0.75" stroke-miterlimit="10"/>
<path d="M48.4711 25.6588L37.1528 36.8857L48.4413 48.5459L59.7595 37.3189L48.4711 25.6588Z" fill="white" stroke="black" stroke-width="0.75" stroke-miterlimit="10"/>
</g>
<defs>
<clipPath id="clip0_9_1396">
<rect width="60" height="61" fill="white"/>
</clipPath>
</defs>
</svg>
