<svg width="50" height="36" viewBox="0 0 50 36" fill="none" xmlns="http://www.w3.org/2000/svg">
<g clip-path="url(#clip0_9_1586)">
<path d="M41.5554 14.271C39.9675 13.8948 38.3796 13.9127 36.888 14.2292C37.0023 13.9068 37.0985 13.5783 37.1767 13.238C38.53 7.58928 35.0114 1.92864 29.3215 0.585137C23.6317 -0.758369 17.9237 2.73475 16.5764 8.38345C15.9088 11.172 16.4321 13.9605 17.8155 16.2355C16.5704 15.1607 15.0547 14.3546 13.3345 13.9545C7.64465 12.611 1.94273 16.1041 0.589431 21.7528C-0.763871 27.4015 2.75471 33.0622 8.4446 34.4057C11.7527 35.1879 15.0547 34.3221 17.5147 32.3635C18.8861 33.8265 20.6965 34.9192 22.8016 35.4148C26.4345 36.2746 30.0734 35.1521 32.5815 32.7576C33.7483 33.6712 35.1257 34.3579 36.6655 34.7221C42.3553 36.0657 48.0573 32.5725 49.4106 26.9238C50.7639 21.2751 47.2453 15.6145 41.5554 14.271Z" stroke="black" stroke-miterlimit="10"/>
</g>
<defs>
<clipPath id="clip0_9_1586">
<rect width="50" height="36" fill="white"/>
</clipPath>
</defs>
</svg>
