<svg width="47" height="46" viewBox="0 0 47 46" fill="none" xmlns="http://www.w3.org/2000/svg">
<g clip-path="url(#clip0_9_1228)">
<path d="M46.297 26.9371C45.9694 26.1728 45.5148 25.4555 45.0445 24.7644C44.3574 23.7644 43.5964 22.8167 42.8776 21.8377C41.5352 20.0104 41.086 17.9686 41.4718 15.7539C41.773 14.0314 42.1271 12.3193 42.4654 10.6073C42.9146 8.36123 42.83 6.16751 41.8259 4.0628C40.2773 0.816729 36.9583 -0.570706 33.597 0.769608C32.3656 1.26175 31.2452 2.0628 30.1195 2.79055C29.2739 3.34029 28.5287 4.03662 27.6831 4.58636C25.5268 5.9895 23.233 6.26176 20.8231 5.26699C19.6286 4.77484 18.4236 4.2984 17.2187 3.83767C15.5961 3.21987 13.9366 2.79055 12.1714 2.88479C9.37034 3.03139 7.00264 4.79055 6.29973 7.38217C6.0619 8.25652 5.98262 9.17275 5.89806 10.0785C5.69723 12.2565 4.88333 14.1466 3.3031 15.6858C2.77988 16.1937 2.19324 16.6387 1.69644 17.1675C0.0422204 18.9476 -0.766393 22.0995 2.56848 24.0733C3.14983 24.4188 3.73647 24.7487 4.29141 25.1309C5.94563 26.2827 6.68025 27.8481 6.36843 29.8586C6.20988 30.8848 6.05133 31.9162 5.9562 32.5288C5.84521 35.8639 7.26689 37.8324 10.0944 38.6178C11.1408 38.9057 12.2084 39.1466 13.2813 39.2984C17.039 39.822 20.4003 41.178 23.2489 43.7225C24.5015 44.8377 26.0288 45.4136 27.6725 45.6544C30.759 46.1047 32.7567 44.7277 33.4438 41.712C33.5653 41.1885 33.6763 40.6544 33.7397 40.1204C34.115 37.0419 35.8855 35.2303 38.8821 34.5131C39.3736 34.3979 39.8651 34.2827 40.3619 34.1675C41.736 33.8481 43.0996 33.5131 44.3257 32.7853C46.5349 31.4712 47.3065 29.2827 46.3023 26.9371H46.297Z" fill="white" stroke="#241F20" stroke-miterlimit="10"/>
<path d="M23.8461 31.8743C29.2489 31.8743 33.6288 27.5355 33.6288 22.1832C33.6288 16.831 29.2489 12.4921 23.8461 12.4921C18.4433 12.4921 14.0635 16.831 14.0635 22.1832C14.0635 27.5355 18.4433 31.8743 23.8461 31.8743Z" fill="white" stroke="#241F20" stroke-miterlimit="10"/>
</g>
<defs>
<clipPath id="clip0_9_1228">
<rect width="47" height="46" fill="white"/>
</clipPath>
</defs>
</svg>
