<svg width="55" height="37" viewBox="0 0 55 37" fill="none" xmlns="http://www.w3.org/2000/svg">
<path d="M28.375 30.5161C28.375 38.328 0.375 38.328 0.375 30.5161C0.375 22.7042 6.64394 16.375 14.3731 16.375C22.1023 16.375 28.3712 22.708 28.3712 30.5161H28.375Z" stroke="black" stroke-width="0.75" stroke-miterlimit="10"/>
<path d="M54.375 30.6879C54.375 36.9374 30.375 36.9374 30.375 30.6879C30.375 24.4385 35.7492 19.375 42.3729 19.375C48.9966 19.375 54.3709 24.4424 54.3709 30.6879H54.375Z" stroke="black" stroke-width="0.75" stroke-miterlimit="10"/>
<path d="M42.375 17.375C45.6887 17.375 48.375 14.6887 48.375 11.375C48.375 8.06129 45.6887 5.375 42.375 5.375C39.0613 5.375 36.375 8.06129 36.375 11.375C36.375 14.6887 39.0613 17.375 42.375 17.375Z" stroke="black" stroke-width="0.75" stroke-miterlimit="10"/>
<path d="M13.875 15.375C18.0171 15.375 21.375 12.0171 21.375 7.875C21.375 3.73286 18.0171 0.375 13.875 0.375C9.73286 0.375 6.375 3.73286 6.375 7.875C6.375 12.0171 9.73286 15.375 13.875 15.375Z" stroke="black" stroke-width="0.75" stroke-miterlimit="10"/>
</svg>
