<svg width="51" height="41" viewBox="0 0 51 41" fill="none" xmlns="http://www.w3.org/2000/svg">
<path d="M20.718 40.3889C31.884 40.3889 40.9359 31.4594 40.9359 20.4444C40.9359 9.42943 31.884 0.5 20.718 0.5C9.55189 0.5 0.5 9.42943 0.5 20.4444C0.5 31.4594 9.55189 40.3889 20.718 40.3889Z" stroke="black" stroke-miterlimit="10"/>
<path d="M20.7176 33.1517C27.8319 33.1517 33.5992 27.4625 33.5992 20.4444C33.5992 13.4263 27.8319 7.73706 20.7176 7.73706C13.6032 7.73706 7.83594 13.4263 7.83594 20.4444C7.83594 27.4625 13.6032 33.1517 20.7176 33.1517Z" stroke="black" stroke-miterlimit="10"/>
<path d="M20.7176 27.3621C24.5905 27.3621 27.7302 24.2649 27.7302 20.4444C27.7302 16.6239 24.5905 13.5267 20.7176 13.5267C16.8447 13.5267 13.7051 16.6239 13.7051 20.4444C13.7051 24.2649 16.8447 27.3621 20.7176 27.3621Z" stroke="black" stroke-miterlimit="10"/>
<path d="M22.2423 19.1866L20.124 20.6008L22.4244 21.7022L22.2423 19.1866Z" fill="black"/>
<path d="M49.8405 18.7241L49.1558 19.3463L22.2188 20.4444" stroke="black" stroke-miterlimit="10"/>
</svg>
