<svg width="70" height="45" viewBox="0 0 70 45" fill="none" xmlns="http://www.w3.org/2000/svg">
<g clip-path="url(#clip0_9_1505)">
<path d="M28.7536 18.6607C29.3798 17.4693 29.9089 16.5217 30.384 15.547C31.3072 13.6408 32.2033 11.713 33.1049 9.79605C33.8176 8.2798 34.9675 7.55959 36.058 7.95489C37.2836 8.39894 37.7047 9.79063 37.316 11.4423C36.2092 16.121 35.0323 20.7942 34.1523 25.5217C33.2183 30.547 29.5418 34.63 24.5749 35.6589C19.6621 36.6769 14.4739 34.5812 11.9257 30.195C9.96596 26.8159 7.39076 24.0325 4.61581 21.3682C3.31472 20.1228 2.0946 18.7906 0.847497 17.491C-0.000104503 16.6083 -0.00550323 15.5578 0.825902 14.6968C1.58172 13.9116 2.80184 13.9224 3.64944 14.7401C5.61458 16.6354 7.57432 18.5415 9.54486 20.4314C10.0847 20.9459 10.6408 21.4657 11.2671 21.8664C11.6342 22.0993 12.1524 22.1047 12.6005 22.213C12.5196 21.7365 12.5789 21.1516 12.3252 20.7997C11.4992 19.6625 10.5598 18.6011 9.64744 17.5181C7.77407 15.287 5.88992 13.0668 4.02195 10.8358C2.98 9.59027 2.9854 8.4585 4.01116 7.58666C4.93434 6.80146 6.06807 7.03432 7.06144 8.2419C9.75001 11.5181 12.4278 14.7997 15.1164 18.0812C15.3971 18.4224 15.6454 18.8177 15.9963 19.0668C16.2987 19.278 16.7252 19.3159 17.0977 19.4242C17.0977 19.0235 17.2543 18.5307 17.0761 18.2329C15.8722 16.1751 14.5873 14.1661 13.351 12.13C11.8177 9.6011 10.2575 7.08847 8.80523 4.51626C8.4975 3.96933 8.40573 3.12998 8.56769 2.51807C8.9456 1.07764 10.8136 0.714821 11.6342 1.94948C13.5831 4.88991 15.4133 7.90616 17.2812 10.9007C18.415 12.7148 19.5055 14.5506 20.677 16.3376C20.8498 16.6029 21.3411 16.6571 21.6866 16.8087C21.7514 16.4188 21.9727 15.9693 21.8486 15.6553C21.3411 14.3827 20.6824 13.1697 20.1534 11.9025C19.133 9.46031 18.172 6.99099 17.1787 4.53793C17.0707 4.26717 16.8979 4.01807 16.79 3.7419C16.5578 3.15706 16.0395 2.47475 16.1853 1.99821C16.4768 1.05056 17.0977 0.0108494 18.3178 0.232871C18.9818 0.352005 19.8133 0.855615 20.1102 1.42421C20.92 2.98377 21.4005 4.71121 22.1725 6.29785C23.9757 10.0235 25.8652 13.7112 27.744 17.3989C27.9437 17.7942 28.3055 18.1083 28.759 18.6607H28.7536Z" stroke="black" stroke-width="0.75" stroke-miterlimit="10"/>
<path d="M43.2708 24.5686C43.4759 23.2365 43.6109 22.1588 43.8107 21.0921C44.1994 19.0072 44.6259 16.9278 45.0416 14.8484C45.3709 13.2022 44.8742 11.9404 43.7621 11.6047C42.515 11.231 41.3488 12.0921 40.6794 13.657C38.7898 18.0812 36.9597 22.5379 34.8596 26.8592C32.6245 31.4567 33.1536 36.9314 36.5332 40.7274C39.875 44.4801 45.2845 45.8989 49.9382 43.8899C53.523 42.3466 57.2373 41.648 61.0488 41.1661C62.8358 40.9386 64.6066 40.6029 66.3774 40.3051C67.5813 40.1047 68.2129 39.2599 68.0564 38.074C67.916 36.991 66.928 36.2708 65.7619 36.4224C63.0572 36.7689 60.3524 37.1318 57.6476 37.4675C56.908 37.5596 56.1522 37.6408 55.4125 37.5921C54.9753 37.5596 54.5649 37.2563 54.1384 37.0722C54.4894 36.7365 54.7863 36.2328 55.202 36.1029C56.5463 35.6805 57.9284 35.3935 59.2996 35.0686C62.1286 34.3971 64.9629 33.7419 67.7918 33.0596C69.3683 32.6805 70.0323 31.7708 69.73 30.4549C69.4547 29.2744 68.4073 28.7816 66.8903 29.1606C62.7872 30.1841 58.6842 31.2238 54.5811 32.2527C54.1546 32.361 53.7173 32.5289 53.2908 32.518C52.9237 32.5072 52.5566 32.2798 52.1895 32.1498C52.427 31.8249 52.5944 31.3375 52.9129 31.2022C55.0994 30.2708 57.3237 29.4206 59.5318 28.5271C62.2635 27.417 65.0115 26.3231 67.7055 25.1263C68.2777 24.8718 68.85 24.2491 69.0821 23.6643C69.6328 22.278 68.3479 20.8754 66.955 21.3736C63.6456 22.5704 60.3848 23.9025 57.1024 25.1913C55.1156 25.9711 53.1451 26.7942 51.1475 27.5307C50.8506 27.639 50.4241 27.3899 50.057 27.3087C50.2352 26.9621 50.3269 26.4639 50.6131 26.2852C51.7792 25.565 53.0263 24.9856 54.2032 24.2816C56.4707 22.9278 58.7112 21.5253 60.9678 20.1444C61.2162 19.9928 61.5023 19.8899 61.7507 19.7383C62.2851 19.4079 63.1057 19.1697 63.2731 18.6985C63.6024 17.7617 63.7212 16.5596 62.6091 16.0072C62.0044 15.7094 61.038 15.6119 60.4604 15.8935C58.8839 16.6624 57.4695 17.7617 55.9092 18.5794C52.2489 20.4964 48.54 22.3267 44.8418 24.1679C44.4477 24.3628 43.9672 24.4007 43.2816 24.574L43.2708 24.5686Z" stroke="black" stroke-width="0.75" stroke-miterlimit="10"/>
</g>
<defs>
<clipPath id="clip0_9_1505">
<rect width="70" height="45" fill="white"/>
</clipPath>
</defs>
</svg>
