<svg width="42" height="48" viewBox="0 0 42 48" fill="none" xmlns="http://www.w3.org/2000/svg">
<path d="M21 28C24.866 28 28 24.6421 28 20.5C28 16.3579 24.866 13 21 13C17.134 13 14 16.3579 14 20.5C14 24.6421 17.134 28 21 28Z" stroke="black" stroke-miterlimit="10"/>
<path d="M21 11C23.2091 11 25 8.98528 25 6.5C25 4.01472 23.2091 2 21 2C18.7909 2 17 4.01472 17 6.5C17 8.98528 18.7909 11 21 11Z" stroke="black" stroke-miterlimit="10"/>
<path d="M32.1273 30H9.87271C5.52473 30 2 33.5804 2 37.9972V38.0029C2 42.4196 5.52473 46 9.87271 46H32.1273C36.4753 46 40 42.4196 40 38.0029V37.9972C40 33.5804 36.4753 30 32.1273 30Z" stroke="black" stroke-miterlimit="10"/>
</svg>
