<svg width="75" height="41" viewBox="0 0 75 41" fill="none" xmlns="http://www.w3.org/2000/svg">
<g clip-path="url(#clip0_9_1534)">
<path d="M20.8595 0H19.4956V41H20.8595V0Z" fill="black"/>
<path d="M14.359 3.84576H12.9951V37.1488H14.359V3.84576Z" fill="black"/>
<path d="M55.2934 0H53.9294V41H55.2934V0Z" fill="black"/>
<path d="M48.7985 3.84576H47.4346V37.1488H48.7985V3.84576Z" fill="black"/>
<path d="M27.9389 3.84576H26.575V37.1488H27.9389V3.84576Z" fill="black"/>
<path d="M61.7666 3.84576H59.8506V37.1488H61.7666V3.84576Z" fill="black"/>
<path d="M9.23352 8.27277H6.50024V32.7272H9.23352V8.27277Z" fill="black"/>
<path d="M68.7919 8.27277H66.0586V32.7272H68.7919V8.27277Z" fill="black"/>
<path d="M2.73328 14.3348H0V26.6706H2.73328V14.3348Z" fill="black"/>
<path d="M41.0749 8.27277H39.7109V32.7272H41.0749V8.27277Z" fill="black"/>
<path d="M34.5746 14.3348H33.2107V26.6706H34.5746V14.3348Z" fill="black"/>
<path d="M74.9999 14.3348H72.2666V26.6706H74.9999V14.3348Z" fill="black"/>
</g>
<defs>
<clipPath id="clip0_9_1534">
<rect width="75" height="41" fill="white"/>
</clipPath>
</defs>
</svg>
