<svg width="54" height="48" viewBox="0 0 54 48" fill="none" xmlns="http://www.w3.org/2000/svg">
<g clip-path="url(#clip0_9_1405)">
<path d="M29.0738 13.5392C29.2609 13.7223 29.4584 13.8951 29.6299 14.0883M29.0738 13.5392C28.9022 13.3714 28.7359 13.1935 28.554 13.0359C28.7307 13.1986 28.9022 13.3714 29.0738 13.5392ZM32.3325 19.6606C32.1713 19.4827 31.9894 19.32 31.8179 19.1522C31.6776 19.0149 31.5425 18.8726 31.4021 18.7353M36.5163 27.2869C36.3968 27.0937 36.1577 26.9463 35.981 26.7734M35.981 26.7734C35.8199 26.6107 35.6795 26.387 35.4924 26.2853C35.6743 26.387 35.8147 26.6158 35.981 26.7734ZM36.5163 20.6673C36.3968 20.4741 36.1577 20.3266 35.981 20.1538M35.981 20.1538C35.8199 19.9911 35.6795 19.7674 35.4924 19.6657C35.6743 19.7674 35.8147 19.9962 35.981 20.1538ZM40.9964 19.2386C40.8768 19.0454 40.6378 18.898 40.461 18.7251M40.461 18.7251C40.2999 18.5624 40.1596 18.3387 39.9725 18.237C40.1544 18.3387 40.2947 18.5675 40.461 18.7251ZM37.0308 14.3527C36.9113 14.1595 36.6722 14.0121 36.4955 13.8392M36.4955 13.8392C36.3344 13.6765 36.1941 13.4528 36.007 13.3511C36.1889 13.4528 36.3292 13.6816 36.4955 13.8392ZM30.3055 10.0616C30.4926 10.2447 30.6901 10.4175 30.8616 10.6107M30.3055 10.0616C30.134 9.89385 29.9677 9.7159 29.7858 9.55829C29.9625 9.72098 30.134 9.89385 30.3055 10.0616ZM31.0279 22.6095C31.215 22.7925 31.4125 22.9653 31.5841 23.1585M31.0279 22.6095C30.8564 22.4417 30.6901 22.2637 30.5082 22.1061C30.6849 22.2688 30.8564 22.4417 31.0279 22.6095ZM21.9275 11.1954C22.1146 11.3784 22.3121 11.5513 22.4836 11.7445M21.9275 11.1954C21.7559 11.0276 21.5896 10.8497 21.4077 10.6921C21.5844 10.8548 21.7559 11.0276 21.9275 11.1954ZM33.5642 16.183C33.4031 16.0051 33.2212 15.8424 33.0497 15.6746C32.9094 15.5373 32.7742 15.395 32.6339 15.2577M21.4077 16.4881C21.2882 16.2949 21.0491 16.1474 20.8724 15.9746M20.8724 15.9746C20.7113 15.8119 20.571 15.5882 20.3839 15.4865C20.5658 15.5882 20.7061 15.8169 20.8724 15.9746ZM25.8878 8.43976C25.7683 8.24656 25.5292 8.09912 25.3525 7.92626M25.3525 7.92626C25.1914 7.76356 25.051 7.53986 24.8639 7.43818C25.0458 7.53986 25.1862 7.76865 25.3525 7.92626ZM19.8018 6.86874C19.6822 6.67554 19.4431 6.5281 19.2664 6.35524M19.2664 6.35524C19.1053 6.19254 18.965 5.96884 18.7779 5.86716C18.9598 5.96884 19.1001 6.19763 19.2664 6.35524ZM47.0149 14.5815C45.1178 13.2748 42.9558 12.5275 40.8716 11.6072C38.3769 10.4989 35.7991 9.54304 33.4187 8.24148C30.7837 6.80265 28.3098 5.07402 25.8046 3.41657C20.6281 -0.0203566 15.145 -0.788072 9.40195 1.7642C4.91668 3.75721 1.90224 7.13312 0.686074 11.8614C-0.145495 15.0899 0.32746 18.2777 1.4137 21.3791C3.48222 27.2971 7.18271 32.1932 10.6233 35.808C13.8612 39.0874 16.4391 41.2075 19.3132 42.9768C23.0709 45.2901 27.0728 47.034 31.5217 47.578C38.1119 48.3813 43.5534 46.2866 47.8048 41.2634C49.5927 39.1484 50.8505 36.7181 52.0978 34.2879C55.5904 27.4852 53.3504 18.9488 47.0149 14.5815ZM24.4637 21.135C24.6197 21.3181 24.8068 21.4757 24.9783 21.6435C25.1342 21.796 25.2849 21.9587 25.4512 22.1061C25.2849 21.9587 25.1342 21.796 24.9731 21.6435C24.8016 21.4757 24.6145 21.3181 24.4585 21.135H24.4637ZM25.6955 17.6523C25.8514 17.8354 26.0385 17.993 26.21 18.1608C26.366 18.3133 26.5167 18.476 26.683 18.6234C26.5167 18.476 26.366 18.3133 26.2048 18.1608C26.0333 17.993 25.8462 17.8354 25.6903 17.6523H25.6955Z" stroke="black" stroke-miterlimit="10"/>
</g>
<defs>
<clipPath id="clip0_9_1405">
<rect width="54" height="48" fill="white"/>
</clipPath>
</defs>
</svg>
