<svg width="65" height="45" viewBox="0 0 65 45" fill="none" xmlns="http://www.w3.org/2000/svg">
<g clip-path="url(#clip0_9_1248)">
<path d="M53.8018 12.5302L53.2607 0.950073C53.2607 0.950073 56.6773 7.05086 58.3856 6.74014C60.0939 6.42943 64.2339 6.74014 64.2339 6.74014L53.8018 12.5302Z" stroke="black" stroke-width="0.75" stroke-miterlimit="10"/>
<path d="M8.07934 28.0361C7.77537 28.6695 7.5322 29.3089 7.34374 29.9363C5.14303 27.1398 2.85113 23.8833 0.474121 20.1308C0.474121 20.1308 3.8603 20.8359 9.1189 21.3259C9.25265 23.3694 9.10674 25.879 8.07934 28.0361Z" stroke="black" stroke-width="0.75" stroke-miterlimit="10"/>
<path d="M14.6025 29.285C13.3198 31.9738 13.1009 34.6926 13.1982 36.521C11.6115 34.9734 9.97618 33.1749 8.28613 31.1074C8.50499 30.1155 8.83935 29.0758 9.33177 28.0361C10.347 25.9149 10.5051 23.459 10.3835 21.4334C11.9763 21.5649 13.721 21.6724 15.5691 21.7322C15.8002 23.9012 15.7758 26.8172 14.6025 29.285Z" stroke="black" stroke-width="0.75" stroke-miterlimit="10"/>
<path d="M24.6395 33.3063C22.8461 37.0768 22.5969 40.889 22.761 43.3508C20.1834 42.2394 17.4295 40.4229 14.4992 37.752C14.3108 35.9653 14.408 32.8881 15.8549 29.8586C17.1255 27.1817 17.0465 23.9729 16.7607 21.768C19.5694 21.8278 22.609 21.78 25.746 21.5529C26.2141 24.4987 26.5302 29.3387 24.6395 33.3063Z" stroke="black" stroke-width="0.75" stroke-miterlimit="10"/>
<path d="M37.5822 30.7668C35.114 35.9474 35.57 41.2236 36.0137 42.9325C32.6701 44.7908 28.828 45.4123 24.4509 43.9961C24.2989 41.5224 24.5725 37.7818 26.3294 34.0831C28.4328 29.6733 27.8006 24.188 27.2717 21.4214C31.0409 21.0808 34.9377 20.4594 38.7555 19.4496C39.1811 22.4253 39.3817 26.9904 37.5822 30.7668Z" stroke="black" stroke-width="0.75" stroke-miterlimit="10"/>
<path d="M46.3853 25.8014C44.8654 28.9922 44.452 32.2129 44.4642 34.6149C42.4641 37.5608 40.1357 40.2019 37.4426 42.0482C37.2055 39.6222 37.3636 35.5531 39.2725 31.5436C41.3394 27.2115 40.768 21.8457 40.2451 19.0314C42.8167 18.2725 45.3335 17.3284 47.7409 16.1632C47.9902 19.0194 47.8686 22.6763 46.3853 25.8014Z" stroke="black" stroke-width="0.75" stroke-miterlimit="10"/>
<path d="M53.8019 12.5302C53.8019 12.5302 51.4492 22.6464 46.3669 31.5436C46.6223 29.751 47.139 27.7672 48.0752 25.8014C49.7106 22.3656 49.6923 18.2844 49.3519 15.3326C50.896 14.5021 52.3855 13.5699 53.8019 12.5302Z" stroke="black" stroke-width="0.75" stroke-miterlimit="10"/>
<path d="M9.11891 21.3259C9.25265 23.3694 9.10675 25.879 8.07935 28.0361C7.77538 28.6695 7.53221 29.3089 7.34375 29.9363" stroke="black" stroke-width="0.75" stroke-miterlimit="10"/>
<path d="M10.3835 21.4334C10.5051 23.459 10.347 25.9149 9.33177 28.0361C8.83935 29.0758 8.50499 30.1155 8.28613 31.1074" stroke="black" stroke-width="0.75" stroke-miterlimit="10"/>
<path d="M13.1983 36.527C13.101 34.6926 13.3198 31.9738 14.6026 29.285C15.7759 26.8172 15.8002 23.9012 15.5692 21.7322" stroke="black" stroke-width="0.75" stroke-miterlimit="10"/>
<path d="M16.7607 21.768C17.0465 23.9729 17.1255 27.1816 15.8549 29.8586C14.408 32.888 14.3108 35.9653 14.4992 37.7519" stroke="black" stroke-width="0.75" stroke-miterlimit="10"/>
<path d="M25.7459 21.5529C26.214 24.4987 26.5301 29.3387 24.6394 33.3063C22.846 37.0768 22.5968 40.889 22.7609 43.3508" stroke="black" stroke-width="0.75" stroke-miterlimit="10"/>
<path d="M24.4509 43.9961C24.2989 41.5224 24.5725 37.7818 26.3294 34.0831C28.4328 29.6733 27.8006 24.188 27.2717 21.4214" stroke="black" stroke-width="0.75" stroke-miterlimit="10"/>
<path d="M38.7557 19.4496C39.1813 22.4253 39.3819 26.9904 37.5824 30.7668C35.1142 35.9474 35.5702 41.2236 36.014 42.9325" stroke="black" stroke-width="0.75" stroke-miterlimit="10"/>
<path d="M40.2451 19.0313C40.768 21.8457 41.3394 27.2115 39.2725 31.5436C37.3636 35.553 37.2055 39.6222 37.4426 42.0482" stroke="black" stroke-width="0.75" stroke-miterlimit="10"/>
<path d="M47.7409 16.1632C47.9901 19.0194 47.8685 22.6763 46.3852 25.8014C44.8654 28.9922 44.452 32.2129 44.4641 34.6149" stroke="black" stroke-width="0.75" stroke-miterlimit="10"/>
<path d="M46.3669 31.5496C46.6223 29.751 47.139 27.7672 48.0752 25.8014C49.7106 22.3656 49.6923 18.2844 49.3519 15.3326" stroke="black" stroke-width="0.75" stroke-miterlimit="10"/>
</g>
<defs>
<clipPath id="clip0_9_1248">
<rect width="65" height="45" fill="white"/>
</clipPath>
</defs>
</svg>
