<svg width="61" height="52" viewBox="0 0 61 52" fill="none" xmlns="http://www.w3.org/2000/svg">
<g clip-path="url(#clip0_9_1272)">
<path d="M47.4219 50.3503C48.3136 50.3503 49.0365 49.6637 49.0365 48.8168C49.0365 47.9699 48.3136 47.2833 47.4219 47.2833C46.5302 47.2833 45.8074 47.9699 45.8074 48.8168C45.8074 49.6637 46.5302 50.3503 47.4219 50.3503Z" stroke="black" stroke-width="0.75" stroke-miterlimit="10"/>
<path d="M32.3697 50.3503C33.2614 50.3503 33.9842 49.6637 33.9842 48.8168C33.9842 47.9699 33.2614 47.2833 32.3697 47.2833C31.478 47.2833 30.7551 47.9699 30.7551 48.8168C30.7551 49.6637 31.478 50.3503 32.3697 50.3503Z" stroke="black" stroke-width="0.75" stroke-miterlimit="10"/>
<path d="M17.7097 51.7896C19.4405 51.7896 20.8436 50.4586 20.8436 48.8168C20.8436 47.1749 19.4405 45.8439 17.7097 45.8439C15.979 45.8439 14.5759 47.1749 14.5759 48.8168C14.5759 50.4586 15.979 51.7896 17.7097 51.7896Z" stroke="black" stroke-width="0.75" stroke-miterlimit="10"/>
<path d="M47.422 40.2913C49.871 40.2913 51.8564 38.41 51.8564 36.0894C51.8564 33.7688 49.871 31.8876 47.422 31.8876C44.9729 31.8876 42.9875 33.7688 42.9875 36.0894C42.9875 38.41 44.9729 40.2913 47.422 40.2913Z" stroke="black" stroke-width="0.75" stroke-miterlimit="10"/>
<path d="M32.3697 39.184C34.1717 39.184 35.6324 37.7985 35.6324 36.0894C35.6324 34.3803 34.1717 32.9948 32.3697 32.9948C30.5677 32.9948 29.1069 34.3803 29.1069 36.0894C29.1069 37.7985 30.5677 39.184 32.3697 39.184Z" stroke="black" stroke-width="0.75" stroke-miterlimit="10"/>
<path d="M17.7097 38.3813C19.0472 38.3813 20.1315 37.3552 20.1315 36.0894C20.1315 34.8236 19.0472 33.7975 17.7097 33.7975C16.3721 33.7975 15.2878 34.8236 15.2878 36.0894C15.2878 37.3552 16.3721 38.3813 17.7097 38.3813Z" stroke="black" stroke-width="0.75" stroke-miterlimit="10"/>
<path d="M47.4219 26.3349C49.1527 26.3349 50.5557 25.0039 50.5557 23.3621C50.5557 21.7202 49.1527 20.3892 47.4219 20.3892C45.6911 20.3892 44.2881 21.7202 44.2881 23.3621C44.2881 25.0039 45.6911 26.3349 47.4219 26.3349Z" stroke="black" stroke-width="0.75" stroke-miterlimit="10"/>
<path d="M32.3697 25.5821C33.6639 25.5821 34.7131 24.5881 34.7131 23.3621C34.7131 22.1361 33.6639 21.1422 32.3697 21.1422C31.0755 21.1422 30.0264 22.1361 30.0264 23.3621C30.0264 24.5881 31.0755 25.5821 32.3697 25.5821Z" stroke="black" stroke-width="0.75" stroke-miterlimit="10"/>
<path d="M17.7097 25.654C19.0472 25.654 20.1315 24.6279 20.1315 23.3621C20.1315 22.0963 19.0472 21.0702 17.7097 21.0702C16.3721 21.0702 15.2878 22.0963 15.2878 23.3621C15.2878 24.6279 16.3721 25.654 17.7097 25.654Z" stroke="black" stroke-width="0.75" stroke-miterlimit="10"/>
<path d="M4.6419 49.2818C5.5336 49.2818 6.25646 48.5952 6.25646 47.7483C6.25646 46.9014 5.5336 46.2148 4.6419 46.2148C3.75021 46.2148 3.02734 46.9014 3.02734 47.7483C3.02734 48.5952 3.75021 49.2818 4.6419 49.2818Z" stroke="black" stroke-width="0.75" stroke-miterlimit="10"/>
<path d="M28.1089 16.7631C29.0006 16.7631 29.7235 16.0766 29.7235 15.2296C29.7235 14.3827 29.0006 13.6962 28.1089 13.6962C27.2172 13.6962 26.4944 14.3827 26.4944 15.2296C26.4944 16.0766 27.2172 16.7631 28.1089 16.7631Z" stroke="black" stroke-width="0.75" stroke-miterlimit="10"/>
<path d="M13.449 18.2025C15.1798 18.2025 16.5828 16.8715 16.5828 15.2296C16.5828 13.5878 15.1798 12.2568 13.449 12.2568C11.7182 12.2568 10.3152 13.5878 10.3152 15.2296C10.3152 16.8715 11.7182 18.2025 13.449 18.2025Z" stroke="black" stroke-width="0.75" stroke-miterlimit="10"/>
<path d="M4.64195 39.2173C7.09101 39.2173 9.07637 37.3361 9.07637 35.0155C9.07637 32.6948 7.09101 30.8136 4.64195 30.8136C2.19288 30.8136 0.20752 32.6948 0.20752 35.0155C0.20752 37.3361 2.19288 39.2173 4.64195 39.2173Z" stroke="black" stroke-width="0.75" stroke-miterlimit="10"/>
<path d="M41.6197 18.3243C43.4217 18.3243 44.8824 16.9388 44.8824 15.2297C44.8824 13.5205 43.4217 12.135 41.6197 12.135C39.8177 12.135 38.3569 13.5205 38.3569 15.2297C38.3569 16.9388 39.8177 18.3243 41.6197 18.3243Z" stroke="black" stroke-width="0.75" stroke-miterlimit="10"/>
<path d="M58.3708 45.9768C59.7084 45.9768 60.7926 44.9507 60.7926 43.6849C60.7926 42.4191 59.7084 41.3929 58.3708 41.3929C57.0333 41.3929 55.949 42.4191 55.949 43.6849C55.949 44.9507 57.0333 45.9768 58.3708 45.9768Z" stroke="black" stroke-width="0.75" stroke-miterlimit="10"/>
<path d="M4.64187 25.261C6.37262 25.261 7.77568 23.93 7.77568 22.2881C7.77568 20.6462 6.37262 19.3152 4.64187 19.3152C2.91111 19.3152 1.50806 20.6462 1.50806 22.2881C1.50806 23.93 2.91111 25.261 4.64187 25.261Z" stroke="black" stroke-width="0.75" stroke-miterlimit="10"/>
<path d="M41.6197 4.72225C42.9139 4.72225 43.9631 3.72834 43.9631 2.5023C43.9631 1.27625 42.9139 0.282349 41.6197 0.282349C40.3255 0.282349 39.2764 1.27625 39.2764 2.5023C39.2764 3.72834 40.3255 4.72225 41.6197 4.72225Z" stroke="black" stroke-width="0.75" stroke-miterlimit="10"/>
<path d="M26.9597 4.79423C28.2972 4.79423 29.3815 3.7681 29.3815 2.50231C29.3815 1.23652 28.2972 0.210388 26.9597 0.210388C25.6221 0.210388 24.5378 1.23652 24.5378 2.50231C24.5378 3.7681 25.6221 4.79423 26.9597 4.79423Z" stroke="black" stroke-width="0.75" stroke-miterlimit="10"/>
</g>
<defs>
<clipPath id="clip0_9_1272">
<rect width="61" height="52" fill="white"/>
</clipPath>
</defs>
</svg>
