<svg width="32" height="55" viewBox="0 0 32 55" fill="none" xmlns="http://www.w3.org/2000/svg">
<g clip-path="url(#clip0_9_1323)">
<path d="M15.9527 21.8599C11.2989 21.8599 6.64503 21.8599 1.9959 21.8599C0.255436 21.8599 -0.151304 20.6796 0.605421 18.175C2.03847 13.4345 3.87353 9.35137 7.14636 7.69125C8.28618 7.11548 9.51113 6.75563 10.703 6.71245C14.1792 6.5829 17.6601 6.63088 21.141 6.66926C25.4402 6.71725 28.6042 9.84557 30.6379 15.9631C30.8602 16.63 31.0825 17.2969 31.3048 17.9639C32.2129 20.6892 31.8014 21.8551 29.9143 21.8599C25.2605 21.8647 20.6066 21.8599 15.9575 21.8599H15.9527Z" stroke="#241F20" stroke-miterlimit="10"/>
<path d="M19.8073 5.10513H12.1739C12.1739 3.89122 12.0793 2.69651 12.2164 1.57856C12.2827 1.06517 12.7982 0.350263 13.1292 0.331071C15.0352 0.21112 16.9507 0.201524 18.8567 0.340667C19.1878 0.364657 19.6796 1.18512 19.7695 1.77048C19.9208 2.76848 19.8121 3.86723 19.8121 5.10513H19.8073Z" stroke="#241F20" stroke-miterlimit="10"/>
<path d="M4.19515 29.4456C4.33098 29.4456 4.44109 28.2577 4.44109 26.7923C4.44109 25.3269 4.33098 24.139 4.19515 24.139C4.05933 24.139 3.94922 25.3269 3.94922 26.7923C3.94922 28.2577 4.05933 29.4456 4.19515 29.4456Z" stroke="#241F20" stroke-miterlimit="10"/>
<path d="M8.12997 29.4456C8.2658 29.4456 8.3759 28.2577 8.3759 26.7923C8.3759 25.3269 8.2658 24.139 8.12997 24.139C7.99414 24.139 7.88403 25.3269 7.88403 26.7923C7.88403 28.2577 7.99414 29.4456 8.12997 29.4456Z" stroke="#241F20" stroke-miterlimit="10"/>
<path d="M12.0604 29.4456C12.1962 29.4456 12.3063 28.2577 12.3063 26.7923C12.3063 25.3269 12.1962 24.139 12.0604 24.139C11.9246 24.139 11.8145 25.3269 11.8145 26.7923C11.8145 28.2577 11.9246 29.4456 12.0604 29.4456Z" stroke="#241F20" stroke-miterlimit="10"/>
<path d="M15.9906 29.4456C16.1264 29.4456 16.2365 28.2577 16.2365 26.7923C16.2365 25.3269 16.1264 24.139 15.9906 24.139C15.8547 24.139 15.7446 25.3269 15.7446 26.7923C15.7446 28.2577 15.8547 29.4456 15.9906 29.4456Z" stroke="#241F20" stroke-miterlimit="10"/>
<path d="M19.9256 29.4456C20.0614 29.4456 20.1716 28.2577 20.1716 26.7923C20.1716 25.3269 20.0614 24.139 19.9256 24.139C19.7898 24.139 19.6797 25.3269 19.6797 26.7923C19.6797 28.2577 19.7898 29.4456 19.9256 29.4456Z" stroke="#241F20" stroke-miterlimit="10"/>
<path d="M23.8558 29.4456C23.9916 29.4456 24.1017 28.2577 24.1017 26.7923C24.1017 25.3269 23.9916 24.139 23.8558 24.139C23.72 24.139 23.6099 25.3269 23.6099 26.7923C23.6099 28.2577 23.72 29.4456 23.8558 29.4456Z" stroke="#241F20" stroke-miterlimit="10"/>
<path d="M27.786 29.4456C27.9218 29.4456 28.0319 28.2577 28.0319 26.7923C28.0319 25.3269 27.9218 24.139 27.786 24.139C27.6501 24.139 27.54 25.3269 27.54 26.7923C27.54 28.2577 27.6501 29.4456 27.786 29.4456Z" stroke="#241F20" stroke-miterlimit="10"/>
<path d="M4.19515 41.6566C4.33098 41.6566 4.44109 40.4687 4.44109 39.0033C4.44109 37.5379 4.33098 36.35 4.19515 36.35C4.05933 36.35 3.94922 37.5379 3.94922 39.0033C3.94922 40.4687 4.05933 41.6566 4.19515 41.6566Z" stroke="#241F20" stroke-miterlimit="10"/>
<path d="M8.12997 41.6566C8.2658 41.6566 8.3759 40.4687 8.3759 39.0033C8.3759 37.5379 8.2658 36.35 8.12997 36.35C7.99414 36.35 7.88403 37.5379 7.88403 39.0033C7.88403 40.4687 7.99414 41.6566 8.12997 41.6566Z" stroke="#241F20" stroke-miterlimit="10"/>
<path d="M12.0604 41.6566C12.1962 41.6566 12.3063 40.4687 12.3063 39.0033C12.3063 37.5379 12.1962 36.35 12.0604 36.35C11.9246 36.35 11.8145 37.5379 11.8145 39.0033C11.8145 40.4687 11.9246 41.6566 12.0604 41.6566Z" stroke="#241F20" stroke-miterlimit="10"/>
<path d="M15.9906 41.6566C16.1264 41.6566 16.2365 40.4687 16.2365 39.0033C16.2365 37.5379 16.1264 36.35 15.9906 36.35C15.8547 36.35 15.7446 37.5379 15.7446 39.0033C15.7446 40.4687 15.8547 41.6566 15.9906 41.6566Z" stroke="#241F20" stroke-miterlimit="10"/>
<path d="M19.9256 41.6566C20.0614 41.6566 20.1716 40.4687 20.1716 39.0033C20.1716 37.5379 20.0614 36.35 19.9256 36.35C19.7898 36.35 19.6797 37.5379 19.6797 39.0033C19.6797 40.4687 19.7898 41.6566 19.9256 41.6566Z" stroke="#241F20" stroke-miterlimit="10"/>
<path d="M23.8558 41.6566C23.9916 41.6566 24.1017 40.4687 24.1017 39.0033C24.1017 37.5379 23.9916 36.35 23.8558 36.35C23.72 36.35 23.6099 37.5379 23.6099 39.0033C23.6099 40.4687 23.72 41.6566 23.8558 41.6566Z" stroke="#241F20" stroke-miterlimit="10"/>
<path d="M27.786 41.6566C27.9218 41.6566 28.0319 40.4687 28.0319 39.0033C28.0319 37.5379 27.9218 36.35 27.786 36.35C27.6501 36.35 27.54 37.5379 27.54 39.0033C27.54 40.4687 27.6501 41.6566 27.786 41.6566Z" stroke="#241F20" stroke-miterlimit="10"/>
<path d="M3.95394 54.7553C4.08977 54.7553 4.19988 53.5674 4.19988 52.102C4.19988 50.6366 4.08977 49.4487 3.95394 49.4487C3.81812 49.4487 3.70801 50.6366 3.70801 52.102C3.70801 53.5674 3.81812 54.7553 3.95394 54.7553Z" stroke="#241F20" stroke-miterlimit="10"/>
<path d="M7.88412 54.7553C8.01995 54.7553 8.13006 53.5674 8.13006 52.102C8.13006 50.6366 8.01995 49.4487 7.88412 49.4487C7.74829 49.4487 7.63818 50.6366 7.63818 52.102C7.63818 53.5674 7.74829 54.7553 7.88412 54.7553Z" stroke="#241F20" stroke-miterlimit="10"/>
<path d="M11.8143 54.7553C11.9501 54.7553 12.0602 53.5674 12.0602 52.102C12.0602 50.6366 11.9501 49.4487 11.8143 49.4487C11.6785 49.4487 11.5684 50.6366 11.5684 52.102C11.5684 53.5674 11.6785 54.7553 11.8143 54.7553Z" stroke="#241F20" stroke-miterlimit="10"/>
<path d="M15.7494 54.7553C15.8852 54.7553 15.9953 53.5674 15.9953 52.102C15.9953 50.6366 15.8852 49.4487 15.7494 49.4487C15.6135 49.4487 15.5034 50.6366 15.5034 52.102C15.5034 53.5674 15.6135 54.7553 15.7494 54.7553Z" stroke="#241F20" stroke-miterlimit="10"/>
<path d="M19.6795 54.7553C19.8154 54.7553 19.9255 53.5674 19.9255 52.102C19.9255 50.6366 19.8154 49.4487 19.6795 49.4487C19.5437 49.4487 19.4336 50.6366 19.4336 52.102C19.4336 53.5674 19.5437 54.7553 19.6795 54.7553Z" stroke="#241F20" stroke-miterlimit="10"/>
<path d="M23.6097 54.7553C23.7455 54.7553 23.8556 53.5674 23.8556 52.102C23.8556 50.6366 23.7455 49.4487 23.6097 49.4487C23.4739 49.4487 23.3638 50.6366 23.3638 52.102C23.3638 53.5674 23.4739 54.7553 23.6097 54.7553Z" stroke="#241F20" stroke-miterlimit="10"/>
<path d="M27.5448 54.7553C27.6806 54.7553 27.7907 53.5674 27.7907 52.102C27.7907 50.6366 27.6806 49.4487 27.5448 49.4487C27.4089 49.4487 27.2988 50.6366 27.2988 52.102C27.2988 53.5674 27.4089 54.7553 27.5448 54.7553Z" stroke="#241F20" stroke-miterlimit="10"/>
</g>
<defs>
<clipPath id="clip0_9_1323">
<rect width="32" height="55" fill="white"/>
</clipPath>
</defs>
</svg>
