<svg width="32" height="67" viewBox="0 0 32 67" fill="none" xmlns="http://www.w3.org/2000/svg">
<mask id="mask0_2_503" style="mask-type:luminance" maskUnits="userSpaceOnUse" x="0" y="11" width="32" height="55">
<path d="M32 11.6522H0V65.058H32V11.6522Z" fill="white"/>
</mask>
<g mask="url(#mask0_2_503)">
<path d="M15.9527 32.8785C11.2989 32.8785 6.64503 32.8785 1.9959 32.8785C0.255436 32.8785 -0.151304 31.7324 0.605421 29.3004C2.03847 24.6973 3.87353 20.7326 7.14636 19.1206C8.28618 18.5615 9.51113 18.2121 10.703 18.1701C14.1792 18.0443 17.6601 18.0909 21.141 18.1282C25.4402 18.1748 28.6042 21.2124 30.6379 27.1527C30.8602 27.8002 31.0825 28.4478 31.3048 29.0955C32.2129 31.7418 31.8014 32.8739 29.9143 32.8785C25.2605 32.8832 20.6066 32.8785 15.9575 32.8785H15.9527Z" stroke="#241F20" stroke-miterlimit="10"/>
<path d="M19.8073 16.6094H12.1739C12.1739 15.4307 12.0793 14.2706 12.2164 13.185C12.2827 12.6865 12.7982 11.9924 13.1292 11.9737C15.0352 11.8572 16.9507 11.8479 18.8567 11.983C19.1878 12.0063 19.6796 12.803 19.7695 13.3714C19.9208 14.3405 19.8121 15.4074 19.8121 16.6094H19.8073Z" stroke="#241F20" stroke-miterlimit="10"/>
<path d="M4.19515 40.2443C4.33098 40.2443 4.44109 39.0909 4.44109 37.6679C4.44109 36.245 4.33098 35.0916 4.19515 35.0916C4.05933 35.0916 3.94922 36.245 3.94922 37.6679C3.94922 39.0909 4.05933 40.2443 4.19515 40.2443Z" stroke="#241F20" stroke-miterlimit="10"/>
<path d="M8.12997 40.2443C8.2658 40.2443 8.3759 39.0909 8.3759 37.6679C8.3759 36.245 8.2658 35.0916 8.12997 35.0916C7.99414 35.0916 7.88403 36.245 7.88403 37.6679C7.88403 39.0909 7.99414 40.2443 8.12997 40.2443Z" stroke="#241F20" stroke-miterlimit="10"/>
<path d="M12.0604 40.2443C12.1962 40.2443 12.3063 39.0909 12.3063 37.6679C12.3063 36.245 12.1962 35.0916 12.0604 35.0916C11.9246 35.0916 11.8145 36.245 11.8145 37.6679C11.8145 39.0909 11.9246 40.2443 12.0604 40.2443Z" stroke="#241F20" stroke-miterlimit="10"/>
<path d="M15.9906 40.2443C16.1264 40.2443 16.2365 39.0909 16.2365 37.6679C16.2365 36.245 16.1264 35.0916 15.9906 35.0916C15.8547 35.0916 15.7446 36.245 15.7446 37.6679C15.7446 39.0909 15.8547 40.2443 15.9906 40.2443Z" stroke="#241F20" stroke-miterlimit="10"/>
<path d="M19.9256 40.2443C20.0614 40.2443 20.1716 39.0909 20.1716 37.6679C20.1716 36.245 20.0614 35.0916 19.9256 35.0916C19.7898 35.0916 19.6797 36.245 19.6797 37.6679C19.6797 39.0909 19.7898 40.2443 19.9256 40.2443Z" stroke="#241F20" stroke-miterlimit="10"/>
<path d="M23.8558 40.2443C23.9916 40.2443 24.1017 39.0909 24.1017 37.6679C24.1017 36.245 23.9916 35.0916 23.8558 35.0916C23.72 35.0916 23.6099 36.245 23.6099 37.6679C23.6099 39.0909 23.72 40.2443 23.8558 40.2443Z" stroke="#241F20" stroke-miterlimit="10"/>
<path d="M27.786 40.2443C27.9218 40.2443 28.0319 39.0909 28.0319 37.6679C28.0319 36.245 27.9218 35.0916 27.786 35.0916C27.6501 35.0916 27.54 36.245 27.54 37.6679C27.54 39.0909 27.6501 40.2443 27.786 40.2443Z" stroke="#241F20" stroke-miterlimit="10"/>
<path d="M4.19515 52.1014C4.33098 52.1014 4.44109 50.9479 4.44109 49.525C4.44109 48.1021 4.33098 46.9486 4.19515 46.9486C4.05933 46.9486 3.94922 48.1021 3.94922 49.525C3.94922 50.9479 4.05933 52.1014 4.19515 52.1014Z" stroke="#241F20" stroke-miterlimit="10"/>
<path d="M8.12997 52.1014C8.2658 52.1014 8.3759 50.9479 8.3759 49.525C8.3759 48.1021 8.2658 46.9486 8.12997 46.9486C7.99414 46.9486 7.88403 48.1021 7.88403 49.525C7.88403 50.9479 7.99414 52.1014 8.12997 52.1014Z" stroke="#241F20" stroke-miterlimit="10"/>
<path d="M12.0604 52.1014C12.1962 52.1014 12.3063 50.9479 12.3063 49.525C12.3063 48.1021 12.1962 46.9486 12.0604 46.9486C11.9246 46.9486 11.8145 48.1021 11.8145 49.525C11.8145 50.9479 11.9246 52.1014 12.0604 52.1014Z" stroke="#241F20" stroke-miterlimit="10"/>
<path d="M15.9906 52.1014C16.1264 52.1014 16.2365 50.9479 16.2365 49.525C16.2365 48.1021 16.1264 46.9486 15.9906 46.9486C15.8547 46.9486 15.7446 48.1021 15.7446 49.525C15.7446 50.9479 15.8547 52.1014 15.9906 52.1014Z" stroke="#241F20" stroke-miterlimit="10"/>
<path d="M19.9256 52.1014C20.0614 52.1014 20.1716 50.9479 20.1716 49.525C20.1716 48.1021 20.0614 46.9486 19.9256 46.9486C19.7898 46.9486 19.6797 48.1021 19.6797 49.525C19.6797 50.9479 19.7898 52.1014 19.9256 52.1014Z" stroke="#241F20" stroke-miterlimit="10"/>
<path d="M23.8558 52.1014C23.9916 52.1014 24.1017 50.9479 24.1017 49.525C24.1017 48.1021 23.9916 46.9486 23.8558 46.9486C23.72 46.9486 23.6099 48.1021 23.6099 49.525C23.6099 50.9479 23.72 52.1014 23.8558 52.1014Z" stroke="#241F20" stroke-miterlimit="10"/>
<path d="M27.786 52.1014C27.9218 52.1014 28.0319 50.9479 28.0319 49.525C28.0319 48.1021 27.9218 46.9486 27.786 46.9486C27.6501 46.9486 27.54 48.1021 27.54 49.525C27.54 50.9479 27.6501 52.1014 27.786 52.1014Z" stroke="#241F20" stroke-miterlimit="10"/>
<path d="M3.95394 64.8204C4.08977 64.8204 4.19988 63.6669 4.19988 62.244C4.19988 60.8211 4.08977 59.6676 3.95394 59.6676C3.81812 59.6676 3.70801 60.8211 3.70801 62.244C3.70801 63.6669 3.81812 64.8204 3.95394 64.8204Z" stroke="#241F20" stroke-miterlimit="10"/>
<path d="M7.88412 64.8204C8.01995 64.8204 8.13006 63.6669 8.13006 62.244C8.13006 60.8211 8.01995 59.6676 7.88412 59.6676C7.74829 59.6676 7.63818 60.8211 7.63818 62.244C7.63818 63.6669 7.74829 64.8204 7.88412 64.8204Z" stroke="#241F20" stroke-miterlimit="10"/>
<path d="M11.8143 64.8204C11.9501 64.8204 12.0602 63.6669 12.0602 62.244C12.0602 60.8211 11.9501 59.6676 11.8143 59.6676C11.6785 59.6676 11.5684 60.8211 11.5684 62.244C11.5684 63.6669 11.6785 64.8204 11.8143 64.8204Z" stroke="#241F20" stroke-miterlimit="10"/>
<path d="M15.7494 64.8204C15.8852 64.8204 15.9953 63.6669 15.9953 62.244C15.9953 60.8211 15.8852 59.6676 15.7494 59.6676C15.6135 59.6676 15.5034 60.8211 15.5034 62.244C15.5034 63.6669 15.6135 64.8204 15.7494 64.8204Z" stroke="#241F20" stroke-miterlimit="10"/>
<path d="M19.6795 64.8204C19.8154 64.8204 19.9255 63.6669 19.9255 62.244C19.9255 60.8211 19.8154 59.6676 19.6795 59.6676C19.5437 59.6676 19.4336 60.8211 19.4336 62.244C19.4336 63.6669 19.5437 64.8204 19.6795 64.8204Z" stroke="#241F20" stroke-miterlimit="10"/>
<path d="M23.6097 64.8204C23.7455 64.8204 23.8556 63.6669 23.8556 62.244C23.8556 60.8211 23.7455 59.6676 23.6097 59.6676C23.4739 59.6676 23.3638 60.8211 23.3638 62.244C23.3638 63.6669 23.4739 64.8204 23.6097 64.8204Z" stroke="#241F20" stroke-miterlimit="10"/>
<path d="M27.5448 64.8204C27.6806 64.8204 27.7907 63.6669 27.7907 62.244C27.7907 60.8211 27.6806 59.6676 27.5448 59.6676C27.4089 59.6676 27.2988 60.8211 27.2988 62.244C27.2988 63.6669 27.4089 64.8204 27.5448 64.8204Z" stroke="#241F20" stroke-miterlimit="10"/>
</g>
</svg>
