<svg width="41" height="41" viewBox="0 0 41 41" fill="none" xmlns="http://www.w3.org/2000/svg">
<g clip-path="url(#clip0_9_1525)">
<path d="M15.8244 25.1756C9.10396 18.4552 7.78858 8.37857 11.8702 0.338806C9.90515 1.33531 8.06362 2.65069 6.42139 4.29292C-1.94124 12.6555 -1.94124 26.2159 6.42139 34.5786C14.784 42.9412 28.3444 42.9412 36.707 34.5786C38.3492 32.9363 39.6646 31.0908 40.6611 29.1297C32.6214 33.2114 22.5487 31.896 15.8283 25.1756H15.8244Z" stroke="black" stroke-width="0.75" stroke-miterlimit="10"/>
<path d="M22.9951 25.2633L25.3867 21.7675V21.7476H23.2024V21.2812H26.1082V21.6201L23.7325 25.1038V25.1238H26.1401V25.5901H22.9951V25.2633Z" fill="black"/>
<path d="M35.3477 20.1413L37.7393 16.6455V16.6256H35.5549V16.1592H38.4607V16.4981L36.0851 19.9818V20.0017H38.4926V20.4681H35.3477V20.1413Z" fill="black"/>
<path d="M24.5696 11.7706L26.9612 8.27493V8.255H24.7769V7.78864H27.6826V8.12744L25.307 11.6112V11.6311H27.7145V12.0975H24.5696V11.7706Z" fill="black"/>
</g>
<defs>
<clipPath id="clip0_9_1525">
<rect width="41" height="41" fill="white"/>
</clipPath>
</defs>
</svg>
