<svg width="39" height="56" viewBox="0 0 39 56" fill="none" xmlns="http://www.w3.org/2000/svg">
<g clip-path="url(#clip0_9_1523)">
<path d="M36.8755 30.1064C36.8286 29.9872 36.7557 29.8836 36.6932 29.7748C36.7193 31.9822 36.3652 34.0342 34.9333 35.8168C34.8344 35.7235 34.7719 35.6924 34.7458 35.6406C34.7042 35.5473 34.6729 35.4385 34.6573 35.3349C33.97 31.6609 32.3506 28.5415 29.3567 26.1734C28.081 25.1629 27.1645 23.826 26.9875 22.1886C26.8209 20.6496 26.7688 19.0743 26.9042 17.5405C27.1437 14.82 27.5342 12.1099 27.1645 9.3739C26.7844 6.56535 25.8992 3.97444 23.8373 1.91207C23.4103 1.48716 22.9105 1.1348 22.447 0.751343C22.5928 1.22289 22.8532 1.58043 23.0771 1.96389C24.4621 4.31644 24.6444 6.71044 23.2958 9.1459C22.4731 10.6331 21.3275 11.856 19.9425 12.8095C18.3752 13.8873 16.7038 14.8096 15.1053 15.8512C9.09644 19.7686 5.9202 25.3028 5.60258 32.4486C5.56093 33.3968 5.59737 34.3503 5.59737 35.3038C5.52968 35.3245 5.4672 35.3504 5.39951 35.3711C2.41593 33.0445 1.77027 29.6245 1.25478 26.0697C1.19751 26.2874 1.15065 26.4325 1.1194 26.5724C0.166534 30.8267 -0.0313303 35.1017 0.713262 39.4078C2.03062 47.0458 6.39404 52.1706 13.6473 54.8807C14.6939 55.2693 15.8134 55.4611 16.8964 55.7409L23.7071 55.5336C24.7277 55.3108 25.7014 55.0258 26.6334 54.6838L26.6647 54.6734C30.8823 53.1137 34.2147 50.3207 36.6255 46.2892C37.6357 44.6 38.448 42.807 38.6406 40.8017C38.9999 37.0811 38.1876 33.5523 36.8651 30.1064H36.8755ZM14.621 54.8652L15.0324 55.0206C14.897 54.9688 14.7564 54.917 14.621 54.8652Z" stroke="black" stroke-miterlimit="10"/>
</g>
<defs>
<clipPath id="clip0_9_1523">
<rect width="39" height="56" fill="white"/>
</clipPath>
</defs>
</svg>
