<svg width="41" height="61" viewBox="0 0 41 61" fill="none" xmlns="http://www.w3.org/2000/svg">
<g clip-path="url(#clip0_9_1556)">
<path d="M20.0363 60.8354C19.5009 60.6971 18.9556 60.5917 18.4336 60.4139C16.7612 59.8475 15.3314 58.8761 14.0114 57.7368C10.9226 55.0696 8.57847 51.8229 6.58349 48.3127C4.99749 45.5203 3.74066 42.5963 2.89612 39.4911C1.12725 33.0009 3.84041 27.6369 8.37897 24.2979C11.3116 22.1411 14.6399 20.982 18.2508 20.5968C22.0246 20.1951 25.702 20.6034 29.2364 22.016C32.6212 23.3694 35.4142 25.457 37.2894 28.6149C39.1215 31.7068 39.4872 35.0195 38.7092 38.4868C37.9312 41.9476 36.5413 45.1713 34.819 48.2633C33.0801 51.3882 31.0419 54.2991 28.4683 56.8148C26.9023 58.346 25.1966 59.6862 23.0852 60.4238C22.5898 60.5983 22.0711 60.7004 21.5591 60.8354H20.0363ZM24.7477 34.216C24.8574 35.5628 25.1467 36.6461 26.1109 37.4199C26.8059 37.9797 27.5407 37.7822 27.9031 36.9721C28.2422 36.2148 28.199 35.4311 27.9995 34.6539C27.8067 33.89 27.4775 33.1886 26.8391 32.6749C26.1375 32.1119 25.3495 32.2831 25.0204 33.1096C24.8574 33.5113 24.8109 33.9592 24.7477 34.2193V34.216ZM4.65835 35.5397C4.665 36.307 4.80132 37.0413 5.25684 37.6801C5.83206 38.4835 6.66329 38.4769 7.24516 37.6801C8.04315 36.5836 8.03982 34.5025 7.23851 33.3961C6.65664 32.5926 5.82873 32.5926 5.25351 33.4027C4.79799 34.0448 4.665 34.7791 4.65835 35.543V35.5397ZM16.6448 35.925C16.6481 35.0886 16.432 34.3148 16.0496 33.7846C15.4644 32.9746 14.6033 32.9878 14.038 33.8143C13.2833 34.9207 13.2667 36.8569 14.0015 37.9797C14.6033 38.8984 15.5176 38.8984 16.1128 37.9797C16.5151 37.3541 16.6448 36.656 16.6481 35.9283L16.6448 35.925ZM22.8392 52.0435C22.9522 52.4913 23.0121 52.9589 23.195 53.3771C23.5474 54.1871 24.3022 54.3386 24.9971 53.7821C25.1534 53.657 25.303 53.5055 25.4194 53.3442C26.1309 52.3365 26.4002 51.2236 26.1675 50.0151C26.0577 49.4388 25.8283 48.8725 25.1633 48.7375C24.5017 48.6024 24.0727 49.0338 23.7203 49.508C23.1617 50.2522 22.9356 51.1083 22.8392 52.0468V52.0435ZM18.4802 53.815C18.3139 53.2157 18.1909 52.6066 17.9715 52.0336C17.7487 51.4475 17.373 50.9404 16.831 50.5847C16.0995 50.1073 15.3979 50.3279 15.0854 51.1314C15.0289 51.2762 14.9823 51.4277 14.9624 51.5792C14.7928 52.8601 15.1453 53.9961 15.9865 54.9675C16.1926 55.2046 16.4752 55.3989 16.7612 55.5372C17.2898 55.7907 17.8252 55.6228 18.0779 55.0992C18.2641 54.7107 18.3405 54.2694 18.4769 53.8117L18.4802 53.815ZM24.5283 23.6723C24.5183 25.0487 26.0245 26.8301 27.4343 27.11C28.3885 27.301 28.9638 26.7939 28.8906 25.8324C28.7809 24.4297 27.2847 22.7931 25.8882 22.5527C25.0935 22.4144 24.5349 22.8754 24.5283 23.6723ZM32.7077 41.8159C32.6511 41.5986 32.5913 41.1409 32.4184 40.7325C32.0759 39.9258 31.3012 39.7644 30.6196 40.3144C30.4999 40.4131 30.3769 40.5185 30.2838 40.6403C29.4791 41.6875 29.1932 42.863 29.4558 44.1505C29.5689 44.7004 29.7983 45.2273 30.4334 45.3623C31.0685 45.4973 31.4841 45.1054 31.8332 44.6609C32.435 43.897 32.6644 43.0046 32.7043 41.8159H32.7077ZM13.649 44.7762C13.5892 43.4623 13.2733 42.4745 12.5285 41.6611C12.1362 41.2331 11.6673 40.8676 11.0389 41.0684C10.3939 41.2726 10.2343 41.8521 10.1711 42.4382C10.0714 43.3734 10.3041 44.2427 10.7729 45.0495C11.0655 45.5533 11.4346 45.9945 11.9932 46.2316C12.5086 46.4489 13.014 46.3304 13.2733 45.8398C13.4828 45.4512 13.5725 45.0001 13.6457 44.7762H13.649ZM9.88517 27.3142C9.86522 28.7367 10.7131 29.2734 11.7571 28.684C13.0605 27.9464 13.802 26.8038 13.8784 25.3121C13.9383 24.1827 13.0871 23.646 12.0796 24.1794C10.733 24.8907 10.0614 26.0728 9.8885 27.3142H9.88517ZM36.6843 33.5146C36.6544 33.5015 36.6211 33.4916 36.5912 33.4784C36.5447 32.3852 36.2587 31.3776 35.4607 30.5774C34.6395 29.7575 33.6752 29.9847 33.3726 31.101C32.977 32.5564 33.346 33.8637 34.3469 34.9931C34.4566 35.1149 34.6029 35.2137 34.7459 35.2961C35.3144 35.6253 35.8996 35.5233 36.2055 34.947C36.4383 34.5058 36.5314 33.9921 36.6843 33.5113V33.5146ZM19.737 43.0211C19.8135 43.4294 19.8501 43.8509 19.9764 44.246C20.1526 44.8058 20.4319 45.3425 21.1102 45.4084C21.7852 45.4742 22.1709 45.01 22.4601 44.4963C23.0354 43.4689 23.1617 42.3658 22.8392 41.2396C22.7461 40.9169 22.5665 40.5975 22.3504 40.3341C21.9647 39.8632 21.3795 39.8237 20.9074 40.2123C20.6979 40.3835 20.5084 40.5975 20.3654 40.828C19.9432 41.4932 19.7902 42.2374 19.7403 43.0244L19.737 43.0211ZM21.9548 28.0123C21.8284 27.4953 21.7652 26.952 21.5624 26.4646C21.1069 25.3813 20.1294 25.2792 19.4012 26.1979C19.358 26.2539 19.3114 26.3099 19.2748 26.3724C18.6065 27.5249 18.4602 28.7334 18.8991 29.9913C19.082 30.5181 19.3912 30.989 20.0163 31.0351C20.6181 31.0779 20.9905 30.6762 21.2798 30.2152C21.6987 29.55 21.8683 28.8091 21.9548 28.009V28.0123Z" stroke="black" stroke-linecap="round" stroke-linejoin="round"/>
<path d="M7.98323 8.74575C7.98323 8.74575 15.1219 12.6379 15.4345 16.0328C15.747 19.4277 12.0164 15.0713 5.44629 18.0085C-1.12714 20.9457 0.295938 21.0939 0.295938 21.0939C0.295938 21.0939 10.59 19.3948 12.0663 20.5045C12.0663 20.5045 16.5749 17.0141 30.1008 20.4288C30.1008 20.4288 36.242 18.4893 40.8338 19.6253C40.8338 19.6253 32.1357 17.3335 26.2472 17.8208C20.3587 18.3082 30.4433 9.58871 32.1723 9.60847C33.9012 9.63152 25.6254 10.2605 23.5773 13.1713C21.5324 16.0822 20.4984 16.2699 20.4984 16.2699C20.4984 16.2699 25.7784 2.81862 29.509 2.39055C29.509 2.39055 28.5979 -0.0231074 26.4334 0.174463C24.2689 0.372034 18.2141 13.7278 18.643 15.045C19.0753 16.3621 15.1053 7.85668 7.97658 8.74245L7.98323 8.74575Z" stroke="black" stroke-linecap="round" stroke-linejoin="round"/>
</g>
<defs>
<clipPath id="clip0_9_1556">
<rect width="41" height="61" fill="white"/>
</clipPath>
</defs>
</svg>
