<svg width="75" height="40" viewBox="0 0 75 40" fill="none" xmlns="http://www.w3.org/2000/svg">
<g clip-path="url(#clip0_9_1443)">
<path d="M60.5565 26.8417C64.5162 26.8417 67.7262 23.6599 67.7262 19.735C67.7262 15.81 64.5162 12.6282 60.5565 12.6282C56.5967 12.6282 53.3867 15.81 53.3867 19.735C53.3867 23.6599 56.5967 26.8417 60.5565 26.8417Z" stroke="black" stroke-miterlimit="10"/>
<path d="M44.2314 25.2565C47.3051 25.2565 49.7969 22.7866 49.7969 19.7399C49.7969 16.6932 47.3051 14.2233 44.2314 14.2233L5.81292 14.2233C2.7392 14.2233 0.247463 16.6932 0.247463 19.7399C0.247463 22.7866 2.7392 25.2565 5.81292 25.2565L44.2314 25.2565Z" stroke="black" stroke-miterlimit="10"/>
<path d="M65.8703 9.99997C68.4396 9.99997 70.5225 8.01013 70.5225 5.55553C70.5225 3.10093 68.4396 1.11108 65.8703 1.11108L33.7567 1.11108C31.1874 1.11108 29.1045 3.10093 29.1045 5.55553C29.1045 8.01013 31.1874 9.99997 33.7567 9.99997L65.8703 9.99997Z" stroke="black" stroke-miterlimit="10"/>
<path d="M66.7383 38.8889C69.4464 38.8889 71.6418 36.6503 71.6418 33.8889C71.6418 31.1275 69.4464 28.8889 66.7383 28.8889L32.8887 28.8889C30.1805 28.8889 27.9851 31.1275 27.9851 33.8889C27.9851 36.6503 30.1805 38.8889 32.8887 38.8889H66.7383Z" stroke="black" stroke-miterlimit="10"/>
</g>
<defs>
<clipPath id="clip0_9_1443">
<rect width="75" height="40" fill="white"/>
</clipPath>
</defs>
</svg>
