<svg width="57" height="57" viewBox="0 0 57 57" fill="none" xmlns="http://www.w3.org/2000/svg">
<g clip-path="url(#clip0_9_1512)">
<path d="M53.4707 40.4189L39.422 31.2104C39.4764 30.9931 39.5272 30.7722 39.5707 30.5477L56.057 27.3684L39.4075 25.7389C39.3458 25.4999 39.2878 25.2609 39.2116 25.0292L52.27 14.6148L36.7777 20.8902C36.6108 20.7092 36.4403 20.5317 36.2626 20.3615L42.9804 5.07318L32.1456 17.863C31.9279 17.7905 31.7103 17.7217 31.4854 17.6602L30.3101 0.937866L26.6429 17.4103C26.447 17.4429 26.2475 17.4755 26.0553 17.5153L17.1683 3.15761L21.6299 19.5902C21.5029 19.688 21.3724 19.7822 21.249 19.8872L6.56556 11.2146L18.2601 23.798C18.2057 23.9139 18.144 24.0261 18.0969 24.142L0.925049 23.2693L17.2408 29.0196C17.2444 29.1174 17.2481 29.2188 17.2553 29.3166L1.54895 36.5588L18.7099 34.0783C18.7534 34.158 18.8042 34.234 18.8514 34.3101L8.28492 48.0414L22.2973 37.9022C22.3808 37.9565 22.4678 38.0036 22.5512 38.0543L19.595 55.0808L27.2414 39.6838C27.3611 39.6983 27.4844 39.7019 27.6078 39.7128L32.8855 56.0658L32.4901 39.0175C32.6389 38.9632 32.7876 38.9125 32.9327 38.851L45.1097 50.7789L36.8937 35.9939C37.0243 35.8491 37.1549 35.7042 37.2746 35.5521L53.4707 40.4225V40.4189Z" stroke="black" stroke-width="0.75" stroke-miterlimit="10"/>
</g>
<defs>
<clipPath id="clip0_9_1512">
<rect width="57" height="57" fill="white"/>
</clipPath>
</defs>
</svg>
