<svg width="54" height="57" viewBox="0 0 54 57" fill="none" xmlns="http://www.w3.org/2000/svg">
<path d="M21.2761 12.3321C21.2761 12.3321 7.6598 14.4652 4.66735 28.0194C2.10353 39.6275 14.2536 54.3804 26.6 52.5439C38.9463 50.7074 48.9132 43.3533 49.5942 33.3583C50.2752 23.3632 47.5552 5.32743 21.2761 12.3321Z" stroke="black" stroke-width="0.75" stroke-miterlimit="10"/>
<path d="M11.1928 8.24202C11.1928 8.24202 17.2427 10.421 17.3189 11.62C17.3189 11.62 9.75651 13.0461 7.56201 17.2527C7.56201 17.2527 14.4424 14.6993 17.3189 14.4005C17.3189 14.4005 13.2348 19.583 15.3531 22.5866C15.3531 22.5866 18.679 15.8266 21.403 15.4163C21.403 15.4163 24.8051 15.3048 30.4017 18.7585C30.4017 18.7585 29.4188 15.1534 24.7289 12.6757C24.7289 12.6757 30.7788 9.59641 34.562 9.82347C34.562 9.82347 30.177 7.27005 23.6697 9.97484C23.6697 9.97484 23.6697 6.52115 26.8472 4.34217C26.8472 4.34217 23.2926 3.52157 19.9668 9.44902C19.9668 9.44902 14.0693 6.29409 11.1928 8.246V8.24202Z" fill="white" stroke="black" stroke-width="0.75" stroke-miterlimit="10"/>
</svg>
