<svg width="66" height="62" viewBox="0 0 66 62" fill="none" xmlns="http://www.w3.org/2000/svg">
<g clip-path="url(#clip0_9_1567)">
<path d="M52.6315 8.74241C52.6315 6.16836 54.7134 4.08097 57.2806 4.08097C59.8479 4.08097 61.9297 6.16836 61.9297 8.74241H65.8537C65.8537 3.99302 62.0175 0.146606 57.2806 0.146606C52.5438 0.146606 48.7075 3.99302 48.7075 8.74241C48.7075 13.4918 52.5438 17.3382 57.2806 17.3382V13.4038C54.7134 13.4038 52.6315 11.3165 52.6315 8.74241Z" stroke="black" stroke-width="0.5" stroke-miterlimit="10"/>
<path d="M4.52051 25.0838C4.52051 22.2107 6.84215 19.8829 9.70764 19.8829C12.5731 19.8829 14.8948 22.2107 14.8948 25.0838H19.269C19.269 19.7891 14.9883 15.4971 9.70764 15.4971C4.42694 15.4971 0.14624 19.7891 0.14624 25.0838C0.14624 30.3785 4.42694 34.6705 9.70764 34.6705V30.2847C6.84215 30.2847 4.52051 27.9569 4.52051 25.0838Z" stroke="black" stroke-width="0.5" stroke-miterlimit="10"/>
<path d="M37.035 17.5259C37.9415 19.3611 37.1871 21.5892 35.3567 22.4922C33.5263 23.401 31.304 22.6447 30.4035 20.8094L27.6023 22.1932C29.269 25.5822 33.3625 26.9719 36.7426 25.3008C40.1228 23.6297 41.5087 19.5253 39.8421 16.1362C38.1754 12.7472 34.0818 11.3575 30.7017 13.0286L32.0818 15.8372C33.9122 14.9284 36.1345 15.6847 37.035 17.52V17.5259Z" stroke="black" stroke-width="0.5" stroke-miterlimit="10"/>
<path d="M38.1111 39.8187C42.3743 38.4877 46.9006 40.8741 48.2281 45.1485C49.5556 49.423 47.1755 53.9613 42.9123 55.2923L44.9357 61.8183C52.7954 59.3674 57.1813 50.9944 54.7369 43.1139C52.2924 35.2335 43.9416 30.8359 36.0819 33.2868C28.2223 35.7377 23.8363 44.1107 26.2807 51.9912L32.7895 49.9624C31.462 45.688 33.8421 41.1497 38.1053 39.8187H38.1111Z" stroke="black" stroke-width="0.5" stroke-miterlimit="10"/>
</g>
<defs>
<clipPath id="clip0_9_1567">
<rect width="66" height="62" fill="white"/>
</clipPath>
</defs>
</svg>
